<mxfile host="Electron" agent="Mozilla/5.0 (Windows NT 10.0; Win64; x64) AppleWebKit/537.36 (KHTML, like Gecko) draw.io/24.7.8 Chrome/128.0.6613.36 Electron/32.0.1 Safari/537.36" version="24.7.8">
  <diagram name="Seite-1" id="REiA3xEpt-ioTuQBpZOm">
    <mxGraphModel dx="2736" dy="1129" grid="1" gridSize="10" guides="1" tooltips="1" connect="1" arrows="1" fold="1" page="1" pageScale="1" pageWidth="827" pageHeight="1169" math="0" shadow="0">
      <root>
        <mxCell id="0" />
        <mxCell id="1" parent="0" />
        <mxCell id="sOJX9RBalDAA7VeVCdZa-7" value="" style="group" parent="1" vertex="1" connectable="0">
          <mxGeometry x="-180" y="310" width="554" height="725" as="geometry" />
        </mxCell>
        <mxCell id="sOJX9RBalDAA7VeVCdZa-8" value="" style="shape=image;aspect=fixed;image=data:image/png,iVBORw0KGgoAAAANSUhEUgAAAioAAALVCAIAAABhll0oAAAACXBIWXMAAA7EAAAOxAGVKw4bAAAgAElEQVR4nO29zZIdt5WujRIpnRB/HKI1UZHqG1B0S2JJLDrCnhzZ4pk22xdgUiOSd2BfgH0HRY9M+gK62d+UsuVvYEeYRbIsyRG6gZaqRnIxRImKY/3UGaAKhZ0AFhb+kcj3CQ6Ke+fOF5kJrBcLiUSuvXLjogAAAAAKsHd7R/29fnND//y5FuUBAACwCCaWo38F+wEAAFAQlwPBfgAAAJTF6kBruPcDAACgAhh8AwAA0AA9BxKwHwAAANXQHQj2AwAAoB7KgXDvBwAAQAOQ/QAAAGgA7AcAAEADThLfTSbJBTGZ4UADoTihFJWFCyUyWEWCEISaCDmzn8RAwP85hOJ+nqiyZKG2Kr1VJAhBqJWQfeqB2kVcd5L/81GForvhTKHEw1myUCK5ytlbjYUQhGoKCdeSo+kNTP2QdsJRhVLCH0coS5xdplAiGcvZVY2FEIRqCimm9pOrC+ktx6hC6V1vWihjH39pQolkL2cnNRZCEKoppLMy+OYtwdaVTfPDW/e3XXt37XBUIeLKZRHiVBEIlRiFK1fO0BobKhTdNCAEIVolQmiyzbH90D9wyXuLYu62ByGOSqhQ9OEwhdLP22KFEildzoxNwyrUZxuE0NKEzA3WDg4O1m9uMCP1xoufWne08/WrzHIwhd46ZRd6/Cyn0FunPrOqCCEeP7sQJERfubfdQo94QopehE67hb7qSyjRgZiNM7GcdI1NF2I2DY6QUsksdGAIPcst5GgdWYRWw5dd6HF+IU+czCZ0FPknV0lFfq+QWchD+1H/J0rgMh4hxNrRH4/dJjQJOqQlOIUUhAmFCDmbsSbkb89WFSVE+IEO4Q0ZhNaO/+REKI+QO/zpSCGvA9URinYgTuMsfUKChJjXt2uh1QjHbBoeIUYzzCKUMar4hGrFSSPyG/0EKv0gWtCK/bhKwDEeBceBXEKcE3osxDizbiFWvDgS8tSVdO+ReGt/sJB5eaSQLw6mW8IshDi4fh7qPdHlzCuU0U1rCGlxTraOSKHwZhgnFBFYYoWCQ2WkkDv4u0yIL7SnJl5n8R66uLRQ0AnlbJ/FeyK2F1HeE7G9U2jt6J9L6PRnQqthAUIhgalzoSxUK2cuIa8N9yWk1WRZyWOEopphhFBcYOELxXmP2j5GiAzmZoCRZhF06uyL7hDe8782fq//9587v5hs8NaLnz7++tWtK5vEnJ+JkPWEvnBxVehvhtCpTx8/CxWyVJEXLt5dFbpmCH32+NmFICFrpX9+VegbQ+jtU589ihbSqsPzb64KfWgInf7s0VeBQrZ4MVOhRMY7Ib0LrcUKVWyGZjaQN7Ac/SQmVKqiBgjZgv8LRvA3jzpIiFrzzWTiPapAExMKciArkxOqPpmc2SAHcgjdtX4yqStBNdLkeUNFffiNTShs727j0T80A0cK4wkFYQbQ7OV0RWoIcYUM7+E3wwgh2QplODajinAEliAh03vMOClsoVLGyQAhw3teMCK//FBGfmVCGy9+qk9G8GJZ9cCV+pjeQxfOi/WcvnDx99Zzqr5NEFqpji9cvGutJepb+Qc5jmUXmtR7a6Wnv/WOzxy3ZJ/3uL5lDgRZQ8ashRKx7r9aOSEULxTSDF1DcF7WHN6jmHzrGoJz717fFRUMJ9+6huA4EOH9hY3fv7Dxe71YxP0aE+4LFwjvUeXQ/+u9CRRNnANFCd3lG08KdMPIKUQ2dQiVI0s5OTupJhRHUPciSSikCzgLoaPe82F/uFwYnIRuZmoxCZVMn2PZj9d7XISabfg5XQvsPiihu4FC3A5RenVk3ixNb8nM+8zjCSVSoZxxUzAiiBYKPerorLSeUGBTjRYKDT42IVbHODScxh/Rxu9FyCiRwm4/egLF32nEEFzoLI5DoYu/DxwVi5nAJmrmJYYQURXyji8tSijLntdW/zGJ+Ek6dfx4TKGoiBFBRGiK6D3HERrSQ6u3J/up2VQKUW0+bv2JvxGMNyw2l/G3k1o5ZbPqs2YOcuH0e6LtOpFdEdfXjxFi33mhZr4N4D1gCYxaUfXjOjkTl+0IfS4a6BJn9jNMk67wIEg26o/OzJ9v202/DiKxnCk/D2oC1aazVxJCawolOQQ9Zs+9tttP0NxthfkIaiHi5s5HEPQ0QIrPffPhNf4lTxVi762VUGL9n0uHo1A5425NzQV9wVMmcT4X/PhdSLjQL83jcKG4AMh89OeQNSHKh3TWzLfgQhydXW8Dm5wR1/O6XhhCK9c47ikzjtCjZCFiZTBzs2Oh8DbGbMkRDT5aKDFiPkwuKo28KOkq3j3kcqZqQt5LXK1PMCOh0p2D6HB6CLs1RrsU97mfgBKsCRHqtEFCqwE9tO/AD3AT54joDTGZ13AHZydZhDjDTT2MvJUr58Q8yglFdGUiU4qehaK6pBHdTX0bTiySPjcJdCVGgI6E8qQEHCz2c1iI1fE32t8m3sMk4mjjTrq6fnrp6IoSVxelUFCNjGtd1p4XvauMJldNiA6m1m+bjLwFlfMhL7utLDTplgVdYma+ztlVMyFbXzNSKCSwpAjRwdDoptuXo+YJ8YK/FHKse20lIPv5584vrCZkek/KoQoh/vm3a9Yza37oWrScyTd/u2atK+aHKbWEEjKaRFADM0c8vvnwmrWZRQsdGmq4kLr3ECRkDhZ9++E1M+ZaPyw98iZJL2fPQvpNo29tl9h13flC1rpkblxbKGogzNrdFA4HcgUBvpA50uOKk0efBw9mW1MC4XAglyPwsU+8vnV/e+vK5uOvXzVncNv1tGMMGnY7FHr2qjYn/XBf3kQnaNhNCj16dsF8msxbJ4KG3exCa0Iw0oIg7zkU+uqC+SBeKyGzsgd1wKXQw68uXDKEvLE1JaWIo1o5GwqtaUKuCcwRGYlZlzhOU1zoaKJ2RF/TDCwcp0ns1EoYA0Jrid30I6FfCOGZyB6U+ggi+7EOwdmxeU/ooR79kOvV9MuwCUJv4dDvqPb/kN3/iL7DH/rDvELEJKvodCT0h3XyHoWqCaXL2ZWQ9UKH1iUlFFdp+W0wOtSGWkJloYhpcqHe40qADnFHs1DvEcp+Ju9eNXfqhOc9av+mkNqYnzZx3lZLCPEdiPP+3TxCjFcXU0LsxpxFiDOv92GaED+AcoQSqVbOuQjpw6rRQhGV1sQr9OirC5WEnl0IDSzWSO0VevzsAt+ECO9hCL1qj8m2Zk94D9EMj1+2LciXHwtzKYXVQvDfK+4Xci+CpJ/3OCF9ARJiWadHeYXcC1XpNX5GQuZwkOJhZ0LRb9r27memJySjEDPcRL9ym3C4foXINdzo0ZQgIXqxOHp8KFDIsYjOgRBafkILmfvfu72zdnBwsH5zg26rkzWj3nrxU+vsao48R8hrP7mEvPaTTcjnCrMT8samroQSGe+EdCXkqrRMS+hRyBFYmN7DF1LImGlmRYlC5mqB0orMrCiiGe7d3ll75cZFzqbWotDarn1yhFwOdPm/7Z/HCW3/uzOH3cwrdNUtdG+WQg/dQpe6FEpkvBMSLfTwqwt527ur0j6ar5AjsDx6llmoZkzOIjTZ4Nh+OD8Igk67aKFzL71o/Xz/ydcZhVwqEBpSKJHxTkickFUFQk2EQulBSN9mZeab2jT9ni0tDyEI1RdKZLwTAiEI1RfSmU68zlIIjjyEIFRfKJHxTgiEIFRfSGF57iexEHx5CEGovlAi450QCEGovpBk5d6PdUdx8KMAhCBUXyiR8U4IhCBUWWh67ydiF+m/hRCE6gslMt4JgRCE6gs5s5+2hE4d6VwodLYShOoLJdL8hMy0aUBosVDZDwAAAFAO2E8N0OtZLLj0ALiA/QAAAGgA7AcAAEADYD8AAAAaYH/baVv0Weev/fLH8o9PfvMX9WGuKbaT6e1KS9+g3HRe/YhEpoOa7NMkiwrzsYBCp67EeUvBPBtmRSpNidbRSqUcqvz6BVIfZjwi/UTVrwyTClmnycepxEy8LnF4rp0TpOi6VFRdkXeMM9rPZC6m6ROJQnXOW00hiX7eXObaNhRaT8ikImXEnNRbqC5ZY3ReIYn1iF775Y8znrq2rcOMKulCQQWo0+RDVfZu74RlP9ZyZD+b6zc3VI2cdFj061dIqA7WGpmOfkQT8gpNslI9VOUS4ncREoWyMAnWMoDWVK9wNkq0QeFoeiVyXNNQCx1Rw8owOVG5mqH3/O/d3onorAfYj2s9H/l5UUsHswM1obIDDQzq0qhw7YdwF/mhMiHUFZ1O+ubzhTME1Buv/fLHsqi93abqE9Oksw++jccYgSXbzDc0rUWB0ECDvAcALxnu/VRg7o252i2Z8ZhLxmOi31eYI/M984uC7vd3Hlh6nHito8YxAFg45oS0udM2OI50JmdKmP00cdo6tUT63Nytrlp7riAkK5s5Yb3Pa1RtogFnnlgi1jOv03mfmkNl7+mz0nJYv7khZ7VxtgzdOfe5H+acglxTD8ZbGh1CeVWyCyUy2GmH0CyEZk3ACxeYpoIJCCAvaLEAjArWfAMAANAA2A8AAIAG9D7zTVHtCb7BhLIvCAYAAFkIW/WAQ4noZsbQQssrVJugMt+ZMAAAkIV5ZD/VVpmEUBBtF5ZfMtZ3B8xaqBrjHdF84doPkWoM8BAASAcrbDah5vNGg13f8Y5odiRlP7rxFHoFXCFGejyzspCObL0YSGwLHCgIvdKOcUSK+m8S0onQjbGfoq+bA7MDCyPVx/oW4FkLgURUWC5xX7xQ7zZ+ydFyrlNtgU4IAQDGYy4vvomZ+TaLAwPVQL+4FZioCSQz7VZmGHybAHNaJiONoYOFMEaltQbkvAmQXHiU3iBit3Nd9SDxzFbzyJpCMP5lgrnXoSCZi6BEeMkw8TovHKEshRlPiEN2IbTkVuDMJzKGmxJJSfY7QK4cKFplrtkP6IoxWvKMwGOn0Yxk295bPtXeyxUH7AcAAOZHk+kGedMp2A/IwEg9SjA2w6Rxre716rqJZUh626lpv7nOyHjvJRxYaDI+M98jSqHhaRdCvPbLHw8gNAFHNDYBbzsVvFxvptPPAZgdw/Ti64NT1wkZVrxWGQ+8Z5mgMbeiznJHQ67sh0rbA/N44QIAwEq1MIp4DbKTZD94zjGIam/HwWt4AAD9w733I50Gw2sp6E6A1boAAAsnIPuRj7wWfaXE8NQZRsci+QCA/gkbfFOLLiANAgAAkELwY6d03oOsCAAAAIeYqQfwmBRw1wcAkA5zCCo9XJcTwqI7g4OZbwAsmcQbJfyfRwjhuZ+q1F+oGAAwHirW0zlHrpv03swmTgjZDwAAgAbAfhqAJ9UBAAD2AwAAoAGwnwZg8hsAAGDqQVXUEsWf/OYvRUfGqgkBABpSZwWAQirIfmqDGz8AgET4D9kkPvdTVAjZTwPgQACARKo9/l9OCNkPAACABsB+AAAANAD2AwAAoAGwHwAAmB+c2WhZZqyVE4L9AABANs699GI1LfX+T+KrLEuOFhLCzDcAAJgfk5d/6vPTmAuSMlWEZkL6PnW/iRNC9gMAALNk/ebGxAz0NCXjhGmrkP5t3G6R/QAAwIxRCUoJ4yGE0lVgPwAAMGPMmy57t3dKONBEKN2EYD8AgPGpOSOgJmbG47ohlEUlrxDu/QAAwPxwjbZZ5yAkCll3ni609sqNiyklC6LO4qwATIjuA6LGgibwX25NbJnlVlA5ob3bO/XsBy0ZNCSiBaLGgoZUW1G0FXu3dzD4BoAFeA8ApYH9AAAAaECbmW/evPLcSy/e/98/nHx45U//2H/ydd6SnHvpxfv/+2VD6PMiQu8YQh8UEXrfEHp3aCFi7k2WJIYzDNLP2ZiXkJyQNhF694PPhRAlhCZt8Eo5odWocuVPx0Klq+uMaHPvh2jPW1c2hRCXTn9m/fbhVxeEELfub6eX50ho1yF0PrPQGYfQl5mFNh1C20MLuZp09N1X/kPdHZ6NWQjRKtmFXA1Q5GuDdEgRWlTxVlfrt3FbZsHbjiKeNNq7vdPRcz/y4vG3jK4uEBpPSFLoaTuONGfLGZ12whXyCjG37FxoRWVNiAPPxvfu3bh69beVq2s0utVZy6weAAo9nF6yH3X9XHnPBJkGifDqogl5GpgQQqwd9oyShHwtWZIu5A0Zku0qQkqlmtDVq7+Vf2RZe5FZXbs65xCyClVrgCtCbgeSOZA4qrGup2eY2U+11EdfezTLqqO9zHxTA25M7xGaS/F7N5rQrt971oRYE0KrUjFCZ3aZVT9RaPPMLrMxC63ZFxXSt6wjdO/ejXv3bojyA+ihAVRohYw4FRCqI5TSAIVpckcBxCJ0FHzqVNdEiHFC3QLjXLB99kPf7PHCvxvkHZk9xqg3QT0j71gzIRvU1/OOnhMMLKR3KrNnPxFxzSwk/1RUE4pTmZEQOR62Av9WEKul+9Iga3UVIfd+vKQ/dmpNd9L33Dj7SfSeyX4YQjHeI0J6RineI0JSk8TGPLBQuU5loiWoHzJPRU2haIKEog8nXciRili4FCLkb+luYRmOSudA5Va/Tt9zS/vJ4j2cn3O9x50vC56jxHnPRJbTRNMb89hCZl8yI1kKyYn74wklkihEtu8VvA4UVgafcIoDSRsg/kXskyOaZT9d3PtJRDpQau1nVExmtyhI0yo7l/bcs1D2hpfFICHUXIhvQl7COprWYZXTKx2mbpF3epRBqv/q/yJ222zitTf1Ofnm3ckn3354zbXxpdOfqblwDiFnRTn55p2p0EfXnUJndh9qc7osQu4aefKNqdB3biECbxs7AaEWTApJlHDzzO72l+e3rmy6bjDQAXReQhxLaCXkbemEEO09J61CtjnZl07vPvzqvOwwRQTxfmZvR5Sk0+zH9B75ofVzRUTn2vQeIcTJN+6YVpEqZNvhiTfumIFVEp0uWHfoUhlbKGOzpEOb9ToSF9cr5GKOQjRthbwtPQLrPo8/zJR5qbpd2nv4+48oSUv7caU+tMfQ306gUx+r9xx/G1Iv6Q5RxirujYOuH4a25/GEMrBm+UcX48Qbd6Y/EUJEmbFfyEZloSA6EXI1z4gJRHRLP3agVRNiTYkyKHdrxypU4iZTG/shGkOQu2ishV5C2nsIQiul13tyNTNvOG4uFEo1IQ6bZyNvXZx4fbWQa577D9H3SELPRombMdam3b8QkZNMhKKntnolK9wZ7Y1OB99oDIs6vpLcS8hLgQnnqFZXRqqUFW4+y8gebRVWiEswtZYsQmaOldtoqSNiCPELMyOh9FExziDHyja5pkDMllnazyrh17C/q16tF08I5fW5qkLG0FYJoZb0V2OHJOOkuADJBTN3++nde6qp9WBgMxUCQAcOVI1Z20/gdavbt6nck6o2EXk8oaFo0IEfkNpncamXbL72E+49FQlVGy+mE0L+1bR8N+dXhD5OEBoVx2gkCAInrzSztJ9vPwyMOLH1iHgqjQhteWtttRjaOFh3HDGJM0OYX30h+za280kJMTooWTox4wkR4SJom+XQnf0QSxvQqLdocIV89cC1gWvVA+EInt6a7dpg2y0UtJ8ZC/lirmuD7adhQhyi9xlqUSUKbxcKvBwRSJ8rITRx0HKdp1ZCS6CN/cgT7Vomh3YgIvVxCjlqf8aeCN3MiHgd2u2qLBSxt8xC7tidN/OIhi4GbZBBEaeIkC03oq8g3bcIO6IEoaCvsgvFhZSIHu3YdPSybZ1vP7xmW/Mtf7j59qPr5mz9Egnydx9dr7NwWZyQK2psf3ne9bBOmNBRmHMKPT3veljnu4+vm4/XELE4IrInIgszKWQJdywipDvQ0Ypk8jryl2KLZjwhGT3sa76BVVq+bi7khQueGwJy5M0VcbI9qOx7FVXGlX2JvmTe9YPLCmnXjXCFQ6FMz4rqQhlfN5exkLRBdiHEfzubFOqgXdQXyh5SUt5dPTvav26OB8t7KlAtR6bHyjOOp9NtLF7ImERAx8FDoRz3PEqnPvVuzLQV6nUaCBiJlvZD3wE6gtsCiIhD3wEKxSuU60ZrNSFvGbhCCTErowMVIpeleQ2yLyHGNfXe9clVXXsTSg8p/Bd7D0nj7MfnQP5IRg+7TYUSqktQRUlpAEG3cHsRIiNUUEaS4kClU590j2T+NpcQs12whByXmFmL0o2hT6FqIWVIehl8szlQNu9Z+UlUdeFXFLVNXAPgW0KK0PaX5/MI+brG20/P8y3hWCg87AYJpZBiDOpX/LORKMQhTGj1igfVvRRjCOoqVRYqHVIGpuXUAx21OuTRTATu/Z7Q63csxLttqOpWkJC+2CXzRuj2TIQOVRgjbEHR1iLEvvdOCGWcepBSSD24Fz0bcee8jVDJ6tpEKD2kLG3qQS/2I1YjKfHyHn2iQVzfYUXIXWP0Tk26ENEGtmcq5I5T0dE2u1Ah+8lYQi+DCw3XLlJCCuynoJj6mzizzEXy05NWCC1BqJz9SGZ0KiDUvxDsp6CY+tt7Zl0XMvtQKYTGFiptP4pZnA0INRQKqq4C9pNdrI4QACYp9gNAfZZgP73MfAMAALAoYD8AWBi+7wlAc+rZD9ozAABwWEi0rHfvBwAAAJDg3g8AAIA2wH4AAAA0APYDAACgAbAfAAAADYD9AAAAaADsBwAAQANgPwAAABoA+wEAANAA2A8AAIAGwH4AAAA0APYDAACgAbAfAAAADYD9AAAAaADsBwAAQANgPwAAABoA+wEAANAA2A8AAIAGwH4AAAA0APYDAACgAbAfAAAADYD9AAAAaADsBwAAQANgPwAAABoA+wEAANAA2A8AAIAGwH4AAAA0APYDAACgAbAfAAAADYD9AAAAaADsBwAAQANOti4AAL2ylvbzgzylAGBUYD9gqSS6S/r+4U9g2cB+wAIo7TRxWEsFTwKLAfYDhqNPs2FiFh6GBAYF9gOGYNaWQ6MfGqwIDATsB8yTgf2GYHLUcCMwZ2A/YFYs03VcqLMBHwIzBPYDugeW4wUDdGCGwH5Ar8B14kBKBGYC7Ad0BlwnF/Ah0DewH9AHcJ1ywIdAl8B+QFPgOjWBD4GegP2AFsB12gIfAh1Qz372bu9U0wJAZ/3WRvRv97ZQb0Eb1m/G19tZUOmFC/AeAAAIYviwiff9AAAAaECDez/DZ5TgkPI3eOTImGtsLe+4WcoI3izBbaFiqLTGGgyHT3oUPU492Lqy6frq1v1tCM1AKJ/xbL3rFnp/e/3Wxt7Wzt7WTg/eQBd1fkJrpNCQ9baW0PrNDekxe7d3ltwdX3vlxsUKMrqfu043ccEmJFYUCNUQSouDROAzhVw5kMp+skw9IHYSVNroknQqNF7VrSV09epv5R+TkMiJlgOwd3unF/tR12zzzC6xn+0vz6u/42pJA6GzpNDTbEKXz+4Rmz14up4ipDeqAKHwIKgHPr6QbMkTh6hgP3GlrXNa4hwoRiit3tYUYjbGDEK88HLr/raMjXpUhP3kV1J/T04o0w909IvHL0MDIbKurwhF1Xum8ejEteQkoZAgqGJfhNBxX/LIJ0rbT0ppq52WekK9V91dwbufldgYI8LLYefpKDAux34az3yLuGZyY7k9P89tIMT2njUhLp/dlc0jQojfgOXGcvt6QuxhnIjYpwvdu3eD/6t0ZGmVOhO1cehpmYFQYI2qKHTYuARvNoxquaFCKlwwURvLqrucGQeKlvajru6lkGum4BtDnPckCYV4j4LvQHGWoAlxHSiPECMCxnnPROiwGZd/UFRF6ojfBhnDzITYNaqi0LQlZncg5T2MHRtCq79amgO1f+7n0pnd6HlSQalJXP2IEYryHklQDhTXhvXf0kKJ3rMiREbARO/Rf1vBgVIitYRpDBmFaOoJJXhPlJC9JQY5EEeI3+QtQmd2hZa7L8qBmtmPvGwp3iPxGkNK3yRGKMF7zL0RX6W0YaaQJJeQl1xC8iZNIQfij2XReA82rxCxt3TvWREqX2/ZQlRL5DtQxibvFFp1oHT2bu+Y/1wbuH7O2WeiWbaxH+U99GYn3rhz4o076UJe72EJkRWWWRFPvH7nxOt36J3RzYbZhp97/XfPvf47eht6J9mFXBGQGf6ChEo/BsQpLXMntM1UE/ISIMS+ZVJYyGMxsiXSeB2Io8YJYjJGpU80cFkCsWfTmaybufaQ4kCNHzt1XTL9gqm/v/vounXjzTO721+e37qyGTFdkiu0JoQQm2d3t5/GCml1Xf39/cf2I7p8du/B0/UIoUnTVf/9/uP3CKEgibkIySdSIxS9EJagl9ZbVAKvJc9PyNebKSO0Zk52e87WEr9ztESv0EqPc1UtKIipfaonUhMpMWVOL1uWcra892P1HiIRicuEXKlPgBBvfNCV+qiMx+Q5++cePVcbJrqNdI/S1bnLL2R0wOnwl1EoC/RuXUUi8ra4kagehFw/6U9opTU5WhwrEwpSyxvEmNBr+WTHOlM8iAbZD3PkzcqJN+5Yuw/SY8699KL+4fvvvCxE5LDssdCqF0iPOffSqRWhn/4wWui51++s5kCHerJ1nTu3IvSHd14WIjhSqw2sfcnaQqunjtkdThSaiMZx7qVTKaV1cfns3uP/+JefffD55MPOhVwn/1Do510JHWYlLu+RnHj9jjUHkk3+0c9fffeP/zA/t7DmMTMiiMlRHOK3BCneE732T2IO1Cz7caU+ddS5QslrlwX2qvAWtmGJtg0I5RBitSx+a33/pz9M2Um5QBfqIrnypDgTaj/xOhTiyr3/zsuVhNyVL4KjTpmlhfwh6xFVixdLI++JJS46hBKEKnVtm5B+GyZ6DykGNj/7GZTGeQ/T55jBgtismlB28nYFAMhO9ABa9pIwgf2MANIaE7gFiADD3zWB/YxAxPzUVkKTG8WJQsRmTCEAJozhQEHPh8oEqP6CC/OzH3rifE4h96MAkzkwLpj1uFoM7UFovhCnKO/xjic0O8ZwoP7py34SreVddgyt5mEASGaUoWYXSvS5ikLcsEB0QDlPsHYbfyISoJmtenDr/nb03HbXZZNvztWtN3IAACAASURBVNh/8qn5Ydxqb646JN8FMhV6+q/CeA5AdqC+//g6PeXG1Srko/v7+/+z+uG/CscjFN9//B59B8gj9GRkof0nz4j9MNl/8iyltC6yn5ZFCZnLguQS0lcw2H563hSytnrJdx9fj36O9db97atX4366QugzoYlP8MTNX2iW/eivE9Uh+gWhXQZZY2KEAlfgOBTS3luqJ+9Elyq0oyqFXKvXEHsLFnp/NKEKRJRWHnjoa0khJNx1Jk7o+4+vm+1UtmK9XfNxxZDvPrpO96HnReLtosZrvllRl4e5UJK8bBHrsFmESOORFdErZA4cq5r93PFqb1T0PGzD4UekdstcNSsuWKjd6n3JuQtxuPX+9ta7mw+errue4Z+UNtojIRQvdH9760qokPMlqMRNICm0/fS8a/kDGUxWlpXjvGy1HaEJUPoaP23s5/DKfXmeHhlLHyHlCoUvOGgXenqeXq86vc/ubV3ZhHzxIotKTaGckPemv//7e5bNjNCT7pTM0zKsUHj/zCFkWZn0SCiya6tYiS1Onfg+tA5hHlke7tH3n2WaXF9TDyLIctlYQskVkTmhJr1pMSmaKIwqdDha+EX4yM+a8Y8jFDXEFMSAQuQYtQPL9XjgG3YzR93jSB92o93F/DZuXbgIaZq1V25cjP4xH73oqrjpL4JTl40O1h4hhimoGsYRcidAfiWm96S/uYsZqdPfRdZQSL1wIeX1P9adHJb2Bwml/aKj85/lbbO1hRgtMVBomphwUh8lFPDSOSMBmvShrdFySFpmP/TUAC9M7/EI5fMecdztsh4R13s4RPXvooTSeqwdCmUkJgfSfsjP0hJPi1dIbTAbIV5LDBRaaaHMYTe1QUAOtBoJqo3f9Mbe7Z3Gg2/KGEJNiO89qUJs79E3e/D0/KoJBXhPoNB6aEs+FuKFP2UM1YSCVCKE0jkOo4EO9OCL9SDviY7X6noNKBTSQAKF1oTWeEOFQkfhVDhapveItoNviuMEljEQp/tH6GWbCpGmoFemaKHLZ3e93hNqPA4h/yBDSpgOGjbpRKjc4JviuLSMgTjlVUmn5Qd73glU0edff59e0QsdLxTbEmsKcQbiiH7t8INv8vVCe7d3urAfycr1M3xokrWk9BfoijLpwkQLTR6tNav+pFNWTyg2RZi867N/oQr2I8zSGj40yZCynRbDh3o7/3mFcjX5mkJ0eHEJjW0/6tV2fdmPxLsgQq5EdTAhzkISWcamOO+x7kSojv1I+jktuUYgOxKaVUtMFxrYfvTXqvZoPzrqKpYeG60jpFfKUkJrQqy256K3QzoXqmk/Op2fllkITVVyP7DZc2wZ1X4mr/RuYz8AVCaL/QBQn2HsZ+I9ooeZbwAAAMbGlX7AfgAAAJTFmsZVWvNtmBSyR/BurJKkDNyBIvS9cCeYQNx5QfYzc+A9YGmgzs8NV/oB+5kzaIdgmaDmDwHsZ7agBYIlg/o/B8wJbzqwn3mCtgcAWsHMgf3MELQ6ACRoC3MG9jM30N4A0EGLmC2wHwAAAA2A/cwKdPQAMEG76BLvWmuwn/mANgaAC7SOGQL7mQloXQDQoI3MDdjPHEC7AoADWkpPeNdag/10D1oUAHzQXuYD7Kdv0JYACAWtZibAfjoGrQiAONB25gDsBwAAQANgP72C7hsAKaAFdcD6zQ2872duoOUAkA7aUd/AfvoDbQaAXKA1dYArAYL9AAAAKAXe9zMf0FkDIC9oUx1gTYBgPz2BdgJACdCymiITINOBYD/dgBYCQDnQvppidSDYDwAAgOKYN4FgP32ArhkApUEra418DEjlQGuv3LjYtkAArQKAehy0LsDiUfaD7Kc18B4AaoIW1xo1Cgf7AQAAUBXpQBh8awo6YgA0AUNwHYDspx3wHgBagdbXmr3bO7AfAAAADYD9NAKdLwDagjbYGthPC1DvAegBtMSmwH4AAAA0APZTHXS4AOgHtMd2wH4AAAA0APZTF3S1AOgNtMpGwH4qgloOQJ+gbbYA9gMAAKABsJ9aoHsFQM+ghVYH9gMAAKABsJ8qoGMFQP+gndYF9gMAAKABsJ/yoEsFwFxAa60I7AcAAEADYD+FQWcKgHmBNlsL2A8AAIAGwH5Kgm4UAHMELbcKsJ9ioAYDMF/QfssD+wEAANAA2A8AAIAGwH7KgMwdgLmDVlwY2A8AAIAGnKwptnd7p6YcADrrtzZaFwHMjTUhDlqXYVzq2Q+8B8yUvS1UXdCG9Zsj95kw+AYABbwHNGTsXnvVwTcF39K3rmzKP27d3y5WnKxCvtuVW+8eCb1f+IgWIyQdwjq2BvMAoFvWXrlxsY6SbuO0/SgncJHLivILObxHxU2nUKbAvVghlwPp9hN37yd6D1vvbpb2YwjVE0q7A7R1ZXMSTFQ8tAZDfrScL3u3d/qyn4kfbJ7dnWyw/fS8+jvFhCZCl8/uTTZ48HQ9Rsiwn0n09AglNLmp0A9WhB58sa7/N6PQj1aF/tpOyOpANe2nN0uGUE6hQPvhdG0JB4L95BdTf5snVL9am2eOXMc9kKV8KNSEdCHTDCaEmdBqafWKHiYU2NJWhH7gE/oij9CPfEJ/bSF09epvxapJ1LGfbi15dkLVuk2TJqk3QKcQz4Horu1U6MiEJiER9pNfTP09OaHqgh0bj/DfRIlwICXk9QMdVWM8QlqBVV2PFGI3sxUh9lNyqlVHCHn9QOev1YUmDlTafvq35FkIVes2JXUEffYT17W1OtBC7Kf9zDe79zDYPLsrR+e8ee5EKMgS5PbyJ1yhKO9ZEfINEViEQp7QVq09VCjIEvTtqwndu3dD1JpxoJeWU2B9M+YJGV7o8g/2vN4z2SxS6KhxeYS0zcKErkQKbV3ZPKy0Q09ys9LYfqK9R8F0oGjvUXgc6Cj6R3vPVMhX9aO95/BXR+2ZLxRqCepXP6olJP+o40AzsuRuhTjGoxPdbYroCFqE3K1MhgWm8ViF8jrQ3u0d1z/rxsR+spTHRfvsR1i9JzyeclKTaEtoI8RoY9WE4iwhghQh9Vs5SlbOgXI5ZTVL7lAo1HsOf8VOTeQGEZYQLHTkPREq5g8r50BSjrClouVpaT/yskXnPQpzgpxVKD1SO/ewmvoUFDpiRSh2YcQ1RqyRQune402AsgtVWGIni1NCKIw1VvsKGjdzYREyp7byBuQ5QjIBEvki/vrNDfNflj3noovsh+DE63fUP2KzoJtAVp57/XfqH7FZ0E2gDEIJrei5f/ud+kds5jUGb6RY+7ffqX/lhHQVplAhB5qvJQ8jxGwduTqC1YSUAy2ENqseCEbqY/qN/OS7j69HCF0+u+tKE0wbkJ98//F7YUK+1KeIkO2YTL+Rn3z/92MhTsrkbXWmDaz92+8O/h52ODWFcuF1Sv2/RDl/9IO9v36xbn34kROpQ4WsX+UVIpgIWRfznFTd761CvmVAOYMQemMMbYDHQoxhlVAhmaAsZBpCl9nPmsV7FK6vfENwXO/xfjWtbbyxrwxCPIhcx/VVRG+USEG82UmfQkxop7QWqUQh44QikulQIeY0ExNrmk5U5ujhAXPggR6KmAqxx7ojhXKM5mWk6Hhds+xHuFMfepyN2uHZ3cc/f/VnH/xD//DyoS1Zag09/EVw+eze45//y88++HzyoWv7JKH/cAsZx0SPsynMc/GjH+zt/PxffvrHzycf8ovKQe6wppD+4bmXTiXu9txLp4iiEkFZfpUrXaOFMiaF2YUmZ0+lMXSfyZID+RIgV2Oke4ERaVA1oUKs39xomGm1sR/C4U+84feeE6/fYQ7B/eGdH7q+4lgCv6L84Z2X2wsxvMfemG388adOIU53nh+eqgn1idWS//jTl4WItGTXCZFCEw+ehZCr0srQPxH6wzsJQo5mGCrkbfJuod0H2rpiDanjSV0OvoGS4A3C0aQ7ZXoZEoWIQ2gitMbuNrm+Ijpk053wOoLpQonkGn/jPPSjb2x+WHqm3FD24w6sI4bcEY8JAC4zr/8Onyt7VE08hqDlvR8AAADZ8b7Ewcre7Z3K8+6Gyn4WxMy7fgBkAK0gE9bVTitkRW3sh1g6OvSxHoW1Kv7sg3+4Kmm1ySf1hOZ8Bx4AsDRaZj/bXxpzPHjdmWiLCoXvHJO50WWFEjp9/Elik7nRoTvpQYjYcxOqzdAbT8jZtcqdAPXQK831NucIKk/C7nHwjXYX4tsHT8+/9Z+f7u8/0/89eLo+ecWTgq5qrm/lDt/6r//Zf/JM/1dP6Iv1B44n2OkEyBUs/vrF+l+/WN/4z6mQ/DxoV10J7T95pn84EfX+M3eb6JQEkz1XEyKYixC/55doLRWEXAGkApOhtjrzEXq0H+H2GNp7IoRcFSV7J6iekKMxZ++ounY4X6EJpgkVdcpqlqz/2/jP/+lfyFWlZT9sIvTWf/1PoY6gVSh0V5xvU+DMse6HZjPfbt3f3rqyuf3ledfaB0EjbEQKLoUePF13PZ+cqyrcen97692KQl+su5asN5srcX5kRLC+QVIK/fWLddej/kEG0INQaQ7+/p71UZgSlrwQoex3NL//+D3rpOe45km394xCoaQ4ULWp2D1NvE4YxpWpT4UxU9nfuXV/u/Ssm0OhFjEUEIxnyZWFiN8e/P093/usj3mQ0MkIMoCUlhgjlBbE6JnTtK/UX4Cn5eCbPNGWCQiBbPu8R36VPq7q9R5ZR7MJuWv8oZBjKGNCXOqjC7nGTPj0IwTaQl/iLJ26XM2wH6FQrG/64eQ0ld8J1PjeTy4HYgqlVBTmb9NrZJhQQrxmxvp0Y6gsVNp7xrPk2Ql5U596HcHsXdsl0X7qQboDbZ7d5Vy2lIqifsUSSqj6x0LsGBrnQCoE8IXiokZ9oWpUsORcQsyTPwuhoGG39I5gPaGFeY/owX6EcqCn57ejZq+9u/qGBa8QMTHGytR7GAMEyoEihXg1/tb72yoHcpmQtbChlqCEQqNGhNDkh4WEEoku5+RX3tLmEvLSjxDdvPidLSWU2BH0sHZsGylCC/QeIcTaKzcu1lHSb2pZhxf1dV5974475N0//kPV1v19y4MaVnQh+pVu9qSHPT6t32jlCkVFzxUh45UqOolhWgl539DTidDellbrot69TeyBX0idiDOzNCHXBIQHCUJBL28Mm25wIIQWVfhCxJiKN1oOwN7tnY7sR0IvNq7b0rt//IcQIsJ+OEI608oReHuU/0LGxJ57HaGg90s2FypqP5LZWfIshCYOFGE8ViGvN8R0BLWy8k2IHs+H/eQXU397T6jLGzbP7h66jkIzg1AHIoQEkQ5Hzc4hgmne8SII6VSwH+Eo4Y9+sGcdX8pryTJwlxNyOZCuOK8jUkiHsI6YhQmtWqUZUighR5CB/eQXU3+nnNDpK5PT7CcGrLM7H+rYj2IWlhzE5IXlir9+sT7TI8ovZBsrpAdXvHd6YD/5xeoIAWClgv2Mx7S3d4R1Tbzlwn9clsdC7KenVQ8A6BvdigAAidSbeD2qh4NZsMDEBYDOqTf4lpfDMQHHbZiCN4Fw42d5IOkBrRi41z7jwbf9J89co9IFgfcskiVnTrj3wyX37Z8l0MWqB9k5d666MwEAAAhhxvaD/hcAAMyXGdsPDRIgABJpML4NlsS87YeeYgAHAgCAbpm3/VQF8w4AAC4QH8KZvf0gAQIAgDkye/sR1ZZ6AwAAkI8R7IcGCRAAAHTIIPaDBAgAAObFIPZDgwQIAAB6Yxz7QQIEAAAzYhz7oUlNgDCrEgBAgygRyFD2g0nYAAAwF4ayH4EhOAAAmAmj2Q8NEiAAAOiEAe0HCRAAAPTPgPZDgwQIAAB6YEz7QQIEQDnwqi2QhTHthwYJEAAANOdk6wKUYn//GWEz586dQoYEgtjb2lF/r9/aaFgSAMZgWPsRPgcKgPE0mYxN3Ualzos3QQ/0VrwHkv14vUWqgLUMJa5phdpCnM8mtZRzfVkFWxPiIEN5FsISB98kGYfgVN3tIUiZ9FkqF5zS7m3tEJvN63gTyX6wFc5ebxeIWZ7eij0Ag9sPRtjmRVALrxkO5pI4zoKuTma3VW4JjDz45gV3gLqFiFCtQkDzoKkXYO5x0DyZzY+Ivr7Nizckg2c/onoChGqahd7uDQAAsjO+/dCk3wGC32RkpA4+AIBmEYNvmIQ9GEiAABiARdhPn5jTW1Nm1qb/tv5sZivrtzb0mYS55OLOjysDiyhVV8OJ1eZwA0CwlMG3Qq8CsjZj5tRh1x8pe4v4bejGFcbE8g7BEbO0q43v0UI1hxl7OBsASJZiP6LwHISUniP9FItIC165Ykrl2JTFgbwntg4pHYjKJenhdIHlgMG3Q9LvAOmjRik7UX+Hhq2JBY4USrKMwlnPLb3n9FM6+Qkx4TjjSCOHgWsLmAvLsp9sy/D4iAslk58E+Zkpl8UO+QRpcU5O3vL3cGPDWoZqlwlr1oHeWNDgm5dQZzKjRkqrLhERuo0yzICbZQhu/daG1Zvj9hYNR7GOD7lcsNvaAkZlcfZTYg5C3nGhvIwUUyKi80iHXwGcLlCTxdlPh9D3HhbeLU25RbHk8zYGnUweAYVY1r0fSZanUDmTiBYV/vj3MEJPS+WbWIUY4BAqE3rGvLM8QG8s0X5E7jkIiCySokOIrWaIgVlgtkHUk/7B4JsFvI27Q5awHBzCJVgUC81+RFoCNGr4A+WAtQAwAdmPnSwJUA8ulaUMnawKM0mAeji9g4FTCmqy3OxH5JiD4OrSdtKMsyyYlqUkueTmOw2hn1sRrpJMTuy5l+Y0BD3firFkkP0E02ctt956TdxJwyPtan3oXLStOfTNsz5rdRDqKQU8rjAXFp39iPKvAird551MCWu4kyz0UxK6DPw5vpNeOX1Qce97jltNp+3pJdRbFayH+rY0kP3Er4TNX6qyKLRWlhUZ+uxLdlgkK/1YgrckdU5pV4E+6JDnUuXmAuzHQ+IcBFd9VZ9nqdC0CnN9T9dSYEytXDCtLt37E1VCt8m1q0SIkvBrS3oZSksEkbHCgCDWXrlxsXUZuoCwmf0neBU3WBzE1AO0CIqD1gWYCXu3d5D9+JnXFCAAAJgFsJ9Dir4LFQAAwATYDwskQAAAkBfYzzGeVwHBgQAAIB+wnxUwBAcAiAfzDkKA/QSABAgAAHIB+5mCBAgAACoA+wkDCRAAAGQB9mMBCRAAAJQG9hMMEiCwZLDkAcgF7McOJmEDAEBRYD9OMAQHAADlgP1EggQIAABSWPrr5mjol9GNgXr5CtaTBwMT91K+MPDMaSDIfuIZIAHiv4gTAADyUjX72bvtDHDrNzvtei8hAVoyzORPblY6QbT2APKK0sc7aioc3bUa9YR0Qr3sh/Ce+TJAAgS8IC+cOzCPPqlkP7T3dJv6SAaehK03SzRRMDB5X28PstBg6kHnZrM00Br7Qb8WSLmyg6reGzWyHz31man3DJwAAQBAE4rbzwDeI8FTqAAAJ5h1HU7Zwbd075F7oH/r3Wbv9o78VpVHbWx+Qki89quf6B9+8us/q79f+9VP+GthucZV+IMDxMgMcyfmHoKGJjgzweht9G/NLevMNMtO+nUpVJKM6ntbO969mdtElyexsWSfTBhxIOlBzPrt5IZ6UIB1/ZZT1Ix0/dipOkfKP+iNrdvInUxOt9xY/5Aj8cmv/ywdSDce9ZVg1kV3hOLHdO8GETvhhBVmGbzbqG/pB4/mZULeQ65zIK6LK3KcSVnP6WORWmqbQuWpXzfiDiRoxi8dhcxutCnEiZPe33KCYRYKDr51PuxmXgZORfnk1382ved4DzluF3v9KXEngGZva0f+C/0hJyeILRQXputHQNf8+uXJtYcsQqwOWaYnT+j9lPu2BDWyn668Z5L0WD/ho4bjVMv0dnLpwSgm3r5n0M978Kr1WxvmsMakH90/WS5uNK5xoXT1ifHEZclx5Uk8pdknE7p2WCdjIAbcvEGMyAdaPZS5rEV3zPoRXWNe+9VPJreCEskVYeV+5hKvhRDrtzbM0s6o/EHU8aHJKbWeYT5x3kOXJ7owJjU7T5OSJ57Y1MKQN4qCftgqQ+jafjgnhTl3wLpB3Elfv7VhGk9eK/JCjw7NPXbPvfwmPRxRXBkm3hNRz3s49iz0cyDrNzeyG0YTB+rafnTqpIf+jsOtDdHuhY/moFncXQqwTIIC6ORmT1y671LsJ5Qz6afALp9Qn0cbSX0HajDzzRriU6Zl98a5l065/CndKsx7JGJWd0cGZqR+QPbbJKHfZizGSNBxsqu77BxqZz+hhsE8ofXO+9HDZREJUK55a9YRZ2RCbRn4zGe/zclk4FMKJLXtJ8InzEdErf/tigrL8Lhue8KE6jP2CY+bcp3I2KcUSBovOZrFQlqlnPtPnhE2MxmC47xsMeVZk8lv6wzHYdBvQtuJ10VRz1xXZuBT2hv1O/SzmXog6TnjYVIoXredA7pkOG8km+OlMcfc6udABHM8pT3TJLTOw37M/IY/37oo9B2g+ithd9Im0TPtE/51UcbTswPVJLpKc1bBqRz64xZ8KUHXa75ZaZ8AHQixdvw/egiOD38htU48xsqSjcc1FFn/nFhLEl2MyTqHPYy4Nqlmec+qaBrK2kdRIUT99/1EM7s5hRLTmYiFC5l0G+K7LRgHtcAP8YmVxCViC2HeC0zcoZ4Gtb3QDdUzStc3gA5DaKXsp9C57uSEchIg/Xmd5istun7OmR8hch9LW+hjCT26EteFv8L/5Jmw7JfmtV/9RM+B6MLkou0p5ZcnaIkW87d13IgWqlYMRcHsh+8NzR/uCd5zyKullDOlt1X+HkrHhfQnCmdH6ZkFnTzpSVNt8pu3qJXrmOfEJjwNWrkPbV2wp8QqPhzKDr55jyr0sPWNS/wwuqIw5yAQa5DoU9dSIl21KXDWdUKVOjMO0ouNNjwQ7yf8DZinhXOwzG2sm+kFSFkLx1tLcy166z1X1VbXJYSYEYwZ9KsZlZRW/3LtNpS1V25cbKUdQUfvEFqbfkCPv7VaJg6ACIjKjJp8zHAv2K45o3jv9s48Jl7Pgt4mYQMAQM/MyX46Sn2EveODjiEAS2Hc1KcaM3juxzwp7b0nCmIlbAAAqEPE++gK0bX9dPJsVBC5nkIFAIC8cCJqzc79nAbfuiM8+4YzATACw428SSoPLHWd/chz0dctHwZIgAAAHWJGVP3z+nRtP5JZWA4f3AECADSkn4iKwbc0HDk4JmGDIUHPSYhhR97qA/spBRoqAAAQwH7agAQIALBwYD/JuDNxJEAAjAZG3vIB+2kGEiAAwJKZn/3M61lUJEAgmr2tnSZvSq2sCArRf6icn/0I8rTKF6fXfn16bD5eNAGqEEfMV2ryReXG6e9+zfLDQrtVx0gcbEqp6HMYoch8wWsuOrxenv24Wzo/7OjblA5T5v5rx0aSHp/72bu9E/dKHnlarRsQX3kLE/dDBf0U6mIfA5JvTxm+r62/JCb0YIk32dAvG41+Fan6CUaGQ6n/qlAv/Tzf42KW2U+PkAnQMg0GmFSz2yFfONsYTDrITVL2o7+baJKyTDoCxFf6t+or11uPiLch6b91/cq7W1dRQ9/CZHY/P/n1n/UXFX/y6z+rv1/71U90f9rb2lm/taHiVJYX0ZvfTnrlumKQqPxtqCIf80xOjtHcLXHqXL/ln4HoxMK6W0KRcxTEyXGVM05RrNZY/oFwTizzesXVWLp+hhK3ABjzV+ZAiwxl3uhk3TMdsoh9ev/LjKL0IJYk3n70kzU5EZPzKEcbXa+7Nk8EUW4iw1VfWV9qyxyXmxSV/mE0siUrN/rk13+2NmbZwPjtR484pg/p+zF3S//WxSQECCNG6PuMCASuGGpGIpfo5Lf6GSC0XKWN8B76ZBJXhLgW6rS7zozrVNPHqH+ud5WEVmNlP8l6j8S1W++3xDlPrLFxuSZxlc2OMh8ZTFw/dMUZIsxOoqgZY+lCWiOel0l5JidE3ydnb0mDb3qYdn1l/VYvXw8DlMSBBKDl5kTf0IoZxOPeY6+2Dy1AhNYEV6CM3jkRBehuL+d2iz24kIW0lsecXODyY3VN+eUpweSKMAO0dCOVABHnPPTEMmuIVTHiesVjjLwxI6wel9dvbkTcmS4RIVMinrec/H2WmnpAXJuJQ/ZgP4XuGer9NflH2zu6RKwxe8FBu40zS3qfrh2qpFD9d/ItvU8XcbGMc8iuLLbJtIto0dd+9ZNPfv1nzpjehOhakXJ+MnuP3GehKMH2HvoWRh3ovCKUPFMPIl6fpzoCvU0XScKWADFbUWVnytUyQ8frsuxW9nyt23g9Rv9trvIwf66j4mNceXIRpPvar34ii1rBOBPPT+ZqeXBsEq4MJpG40bxy5alDnqkHVlwnxXpzhdh/lpOrC5ljndwJBbHlUY3HNQlbDm6kT8LWR9InBch7D9Yk+845t768oZC4I12iPN6fZyxPNBHln0ycybJPCfN81r9ehfBOvKrjJSoGesMvk7h55/H2M5kCYU57CJr8NsE7uSLuUll1zRNn3sELuFN1IMSapmhrNnIcYzKVKBdEQyWmCaTg8oB1cm6Sd46W+nCyQeiNNOZXRMnN8qRH28kQIlHUjONIVlHriTX9hqiu5ukKKq11HNV7fjhEONDktAtxOKRBTxwQ7tDk/eFxaUMiuHdjb6jkTGALQp+oxdzJ2is3LsaJTSCmOwv3ERIZkvXbuImP3t169xzmdqv2Y1Z9mQBN5r8pciVArm/V33V6hdEzCLz7NH+lJ3+EYj/dYdeBCFGqryDI065/ZdZMYuoBvVtOkYKuV7mcxlKFtBH16AAibBEyQ2nTykN8lVhUTsDcu72Tx376mUTQC2ue74k7PXhGFTTHVT8XVznxqGkUTPtJfe5HAe/JxWKX4QEAzJcIR0i69xP92/E58CRA9EJwAID2IPUJIcIRsOZbj8CZAADDA/tpBj3CBgcCAIwN7KcYyNwBmC9ov+WB/ZTEV4ORAIEOEsRPDAAAIABJREFUQcWD99QB9tMYTHIDACwT2E9h0rpR6IcCUBukPrWA/bQHCRAAYIHAfsqDBAiAuYDUpyKwny7AHAQAwNKA/VQBXSoA+gfttC6wn15AAgQAWBSwn1owOlaYgwBAM5D6VAf2MxuQAAEARgL2UxEkQAD0CVKfFsB+6oJJ2AD0BrynEbCf7kACBABYArCf6iABAqAfkPq0A/bTI5iEDQAYHthPCzAHAYAeQOrTFNhPIzAEB+bGaF0ieE9rYD/9MlprBwAADdhPO5AAAdAKpD4dcLJ1AZbNgRBr1Pf7T57BZkA6e1s7rYsAFsr6zQ3XV8h+ZgycCXCA94CG7N12Vj/YT2t8gwCYhA0AGBIMvnUAhuBALdZvOUdCFLKy/eGnL8v//uyPn8s/Cs2F2Xp3U/5x6/3tEvu3CN0vLHRlEUIqrbEOrxFJj2LtlRsXcxQPJEM6EG0/mCMHCPTBN9p+ZIC+/IM967cPvljP5RDKCVzUE8oUuFWAXpQQ4UC6/bj8CfbTDaT9CNKBYD+AgGM/epgm7Ef+keINK0JnLUIPnq6rv+sJJYRsPUxfPrtnjqc/eHo+u9Dmmd3Jt9tfntf/W03o6tXfyj8mHgP7mRtIgMaFuP9vWsLe1o7LJ4ivONLmbznGo1AOJMK9wesHK0IJJhQvFBiyDeMRxL3cFBNSQqYZmOj2UEfI6kAc+8HUg54gpyHAYBaCdAurXRFfxaEi9eUf7Hm9Z7KZd1zLLnR2z2sJk83qCfmGm1aEroQJbZ7d3Ty7myLEsQS5mdqytNClM7tCiHv3bshPOPd7dGA/nRH7NBzmJsyC9Vsb5r9WhdG9J+iHoQ6kW0KYUKADZRDixWu5mWE8ztarvgh1ILnZ5tldpiUoQh3oUOhMgJA8qBQHgv3MCUzCBrmI9h71K/lDrzFEW8LkV0whZi5CCfnitfKe1Y/93iPhO5DynrheKd+BlPfEyCQ4EOynP7AcCKhFnPdM4KQmcZaQ/tvsQkHDWS6UAxUXYjhKFqE4B4L9dInbgZAAgXToCdZcDvzxWmUkSUJHeyB8LrOQLyJHpz4K6UBeoejU53gPZ3hCgamPWaiJA3HAY6e94n4WFU+hjs36rQ16ckGW20W09zz3b7/T//v9399b+VqLPZfP7j14ur717qY5P41jCc+9vir08XuuLWsLXdk0p41xht2ee/2O/t/vPr7uEto8u7v99Lz1q+NhNzcn3lgV+sgpRMAZdgsVWr+5wcx+YD+jce6lU5gjNyS5JrzRY2UT49E/PDShTIPDEz/QPyS8oW+hO+aHJ16/I0gTsvrcMbazPfED/UOrN2ye2d3+8rxHyAYh9K1N6NKZ3Ydfnt+6ssl0IAy+dUzsEBzolr2tnck/emPzw6Iz5azes/JtSe9hfttWyJX6WL1HcYL81oor9bFaAvNbu5Aj9aF3dTJcyLKT9F2AgviWg7OCBGhGWB8j9Y6/JZJlxsHx3s7uCSEe/8e//OyDz9WHf3jnZSEyTxmoLfRzr1CqG0uPmYylv//THwqxm2P3mtAZKfTiitA7Lx8K5UMmQMyNkf10j6MKYg7Coqgw8kanPofb5MhLODuZm5A/FSASoPd/+kOmECe5IbZ5/52XMwoRCRBzNh2ynzkQlQOBrrAOmnlNZZIbNXxGFRgUfkJiAQ9gIPuZCba6iARoYAo5DXNxHeAD3pMBZD/zwZYDYRL28CQOu6F6gG5B9jMrAvtECD2zZpIA8fOhcy+dUv8KlAsg9ckD7Gf2YJJb53DmWKeTbjnTZ0uLkfdpm+pCFnP43v1Yj4J49Ccvcc+fRmB99CcI2M/cQAI0W4Ie+plgTX0iLEe9OXvKAatqEQFdn6Ns/jeU8YQI3v3jP5hbJlrLu+xDiBaSs66Zz7fCfmaIESYwB6FnUiYRmL/NP7CmGQ+dLri+ffB0/cHT9f0nzyb/5OdBuwoW2n+2v19MaP/Z5N+Dp+sPHMvk0MmN69vtp+e3n56fnLe3/+vT7S/PbzuenqGNwfWt3OH+k6/1fylC6amPwNSDuYKp2LMi0YFK3cWxpTsyIptPw2QfyPr+4/esz9wECPFGAjII8fju4+vWh3uyD7t999F163M52YfdXEJZvEcIgZdtz5lVB8LbuEcio9988us/q79f+9VPxOED/HmQaYfrfdi5FqK2CK16j2Mx0AQhx/DRkdDKYgFxcwXkeqO0UPQ7eFaEyAGxrSubXhXmAeojb3jZ9uisVgoYzNypM2ONHhabBz3NDeupLJG4xt8k5Q4Q9jNz2FUDd4D6pPIkadlHkTlEugPRqU8pIVudlz3ubELuO+dHQofxOjo006mP+oo2BpaQby5ALqGgSQcS2M/80VoAEqBZUC3Lkf+s36Ybg9d7igi54326A3m9Z3Xj+Hjt9Z6VjROMwes9XqGIYTc+sJ8h4NURJEANqWw5/I5IXLyO+FUGIV49L31EKsjGORDfe9Q2cQ7E955EoTjvEZh6MBRHMxEwB6ETao6nEegPGJlz8NQa2Pz79ipSe1MfUyhodsCKEM971FrLMYcTEkCVEP1OUh31btNIIfY0BOUiiULeU/7QLcSZegD7GYs1IWA/TenEcnRo+xGrb2Ggo3ac8YQK6YmId8zNLsQzoRWh8M67YJuQ/lLtVCHShPT0JV2IOOsPfUKwn6WyBgeqSoeWo+O1Hwn9Em6dOO8JVREhSY9FiPfKGREbpiFEC8F+FgzpQLCfdDq3HB2m/UgIe0hxnUihHHN+iWCaGKYhRAD7WTTnziEBysyMLEcnyH46YoAHahYMx36w6M6w7O8/ox0IcJip5bgovfA2AHxgPwvl3EunkAC5GMxyAOgT2M/IIAHiM7DlrN/aQNIDWmEdeZPAfpYLEqCBLWfCPG754GbPwoD9DA6dAC3QgZZjOTMD3rM8YD/jgyE4WE7vwHsWCexn6YyaAMFyZgO8Z6nAfhbBQhIgWM7MgPEsG9gPmHcCBMuZK/CexQP7WQojJUCwnNkD7wGwHyDpPwGC5QwCjAccAftZELObhA3LGQ14D9CA/SyL/ofgYDljAuMBBrAfcEyrBAiWMzjwHmAD9rM4PAmQjBRrzu9zActZBDAe4Ab2A1Y4d+7U/v4zcVDEgWA5ywLeA0hgP0uEdQcoUxoEy1kiMB7AAPYDphwmQJKoNAiWs2jgPYAH7GeheCZhTxxI+E0IlgNgPCAI2A/gYTMhWA44BMYDwoH9LJeABEhxIOo8NgTLmRPwHhAF7GfRMJ9CheUAOzAekADsBzip4DqwnLkC4wHJwH6WTv1leGA58wbGAzIB+wE1gOWMAIwHZAX2A0olQLCccYDxgALAfkBODifLlV8yDlQCxgOKAfsBQqQlQNb52ULAhGYOjAcUBvYDYrBYjglMaKbAeEAVYD+AC8tyTFQsgw91DlwH1AX2A/xEGs8EJEPdAuMBLYD9gLrAhLoCxgPaAfsBLcCIXHX2tnZaFwEslPWbG9bPn6tcDgBWODj6B0oC7wEN2bttr37IfkAfIB8qB9wddAnsB3QGfCgXcB3QN7Af0CvwoTh8ruMaiFdsXdl0fXXr/nZEiSA0sJAaWDPrlWvMTQH7Ad2jx1NYkZVMiQ4Ra/QN0gMchIYRWr+54bUZF2uv3LgY90swGMSiO3me+8kLfEgEuI4eIKzZjx5rLp/dc+3nwdN19XdcgPMJHRwJnc8otHl217XZdl6hM26hL8sKqbrwMKvQpdPOI3r41bHQ1au/FUbVomvd3u0dzHwD8+Rg9d9CKHPUKtxcPrtHeM9kA2/vOFBo5ZAun929fOQZKUKbZ3cJ75lskCR0ZpfwnskG2YX0unDpzO6lHEKXzuwS3iOEuHT6eIN7924IxmjbBGQ/4JCZZT8EgyVGOWyG6IfKcEO7jhWVCTG72KQQdZAyE+J35KUQ7TpWtuOESNexC32ZU4g4dw9DhHTj8ezXKMLDry6IoxxIHNUxZD9geRzMOTeqW/ho7wn9lVvIf5AyDWJ25CO950CIg8P4HiYU7j3qVxWELoUI6T8J8h4hxKXTn4mjHEiw0yBkP+CQcbIfJoWTJPNJz/Vbqx3AA/+sIWIw/Xi3vplswtEPTfEehcyB6P61QygswnFSk3jv0eCkJimWkFeIcxI5OZAUivOeY6HVHEgH2Q8AGmaekS/tsK8yUCatiZt3lMV71B6I/nWi96hTtenLgbJ4j2CkJlm8J4sQ8yR6c6AV70lgkgN5gf0A4MDrT45/ESvcMC3ElehEz3xtQYD3Fh83ndfA7Cqlyh6b+uhwMnKB534AKASzBUbsdjJkF+E93tTnudd/Z374/cfvWTe+fHbvwdP1rSub5vDOqpAlWj33+h2b0HVrYNs8u7v99DwhRKQ+J2xC33103brx5pnd7S9JIXeicOKNGkIHQpy0CX3rELp0ZvchKUQMu5180yb04TW70OnPHn51YevKJud5IGQ/AOSkVSKSUdfqPcTnDOwZj9V7iM+jsXqPcFhFkpBjh3mFXN4j3J9HY/UeIcTJN+9m2Hn6LgAAEmIqAee3cQlTymPnJrTHPPf676w5kMxvzNkrl8/uuYZoaI858fqd7z62dORlfnPupalQaN5z/O0bd6ypiUw7zr30ovVz167qCNEec/KNO9Yc6JJD6PiWj3GhXN5z9O1dVw7EBNkPAHmI9p5cw3RME0qcdED40x/eeXn1vz9MuUNB2Mb7P/0h8d9gIXc0f3/1iCb/Ze6EQzWh+6t7Pv5voPcQyAkInNnesB8AeiE6icllYAnDa6FCmceIXNCpT2XSh+CYZh48BBfbSUgcgoP9AJCT6AE0+ces5rCBqnQw1S0zuPcDAMjCnGcxd8+QJxf2A0ApJqkMnRjlnUFQlyFjY0cUPL9NLx0G3wDoiwgTCvqJd1nrEILXb6i3CN/slvtzMMRB2IH9AFCK9Zsb8l81Oc5mP/vgc9dXrgdLjW1YCwf97IN/6P/Vf2CdVD2Bs42TIyXX854rQoxtsuwkQsg8xa4HS0O38e/kQ4aQe+I1Z5lt2A8AvRA3AcG7MbGYbBRO15n4jf6DvF34d//4D+K/GcXeXbXqd93OXUKoRN5zZVXoyp/yH5FceJQD7v2AI2RlH+xlOXMj+g6QmfrEuY5MgFwzsL93ZCTylTz7+58an/+rcDwT+t3H14lZ0a7UR657vf9kKrQthWyPan730XVixrMrI5HLUVuEvjxfU8i6DOi3H10npla7Up+HDiH50lLrm+W+/fA68fRP4jOnAvYDpsCE0ig9fUDfv0srPd35/uP3Jg7kMp4UpMdMTChpzM0l9NF1YTx2k2XMrZWQ9JiJCWUZc1vlQHrM5PmedOOR4H0/4BBzIRNlQmO+7yc3XuOJeKkP530/+mYu4/nk139Wf7/2q58IY4UCG9yxH/ptpNHvHjWhX/mT6z0IwvcmnspC6e9BEL5X/hwKTROgmME/OfImhfC2U5DAKHOH6uCdV51lP1bOnTsl//F/4p6AkPl9RDISSedIgbkHGdCThHh7qCb0MFko6JXbSUKa93DA4BvwAQdik2u1N/7n+aYVRF5mOvXJDiF06/520FullyZEl2HryubDr85rCVCNZo/sBxyy/wQjbHMiNN2ZsL//7K3//J8HT9cfPF0v7T3pCRDnTdvHQgnpAucF2PWFUhIgZupzKPSVFEoddmOCez/gGMvtHyEEnKkn4ixHv/czSaFU//pyyO2ZB0dewg83SijoPtB2ilDIXRPlJT0LBd0HepgidPqzAKGjmdYTIdz7AWAQEtMdFypkPOBlJwdR3qNvzE+DIrxnRYidNERYQhMhfhoU4T0rQuxnd1zewwHZDzgG2U+fJLrO/v4zuh8q0W8zWDOhiT9F3+/RhayZ0HYJIVveoNtGyu2rOkKT+0DWTOhhCSFbJqT7k0vIm/3AfsAxsJ+uSM911Ix5jv1IOPe6s0w0qCPEvHU/mFAnFwj2AwKA/XRCeroz+YRvP4pJ9Ck3tw1CowrBfkAAsJ+2ZEx3Jsz2VQ5gEKz2g+d+AGhPOeMBoFtgPwC0JPs4GwBzAfYDQAMqpzty6ANDcKA+xL1G2A8AVWk4zlbtxXcAcIi3H/SkZgTiTg9gnA0AHWQ/AJQF0woAsAL7AaAUSHcAIMhgPxjYaYj1fWWTb0FlkO4AwKFG9kMs3pD3Md0FCq3f3Ni7vbN3ewedgB6A8QDAp6z9eFcNUhskRu0lC8GBegDjbACEUsp+9OhJvzpCrpwqt48I2StC5Msw5FqwWYTo13tsVxdSDiQwFloXpDsARFPkfT/6O4u8ry3Stwl9s6z+Fibvi5j0baKFNs/sel8tpW9TR2jryua9ezeChEAi6W/f2d9/Bu8BSya//cgAyjEenQgHOhRiGM+KULgxyC05fqAT4UCJQtKBMN2gNGHGczD9J10HxgNAZvtR3hPx2yAHOhLajXgreZADKZOLePt5kAMp7wnXgQPV4NxLp+Q/01Gofxr7T55h7XAAFPEvXFAxTt1sSPEeBefVrcfeo1gLF2K8jFZ5T4IO6/W6Kd4zEbp1f1vdBDKvkQnhVa/98ifyj8SgSduhtWzETIr6kyxc76FgAssBwGTv9k6Rez8pRLpXQg5UWCfVVEKF5EwEwcuB6G0++c2f00vlLYa5AfGTyondYboTC9IdAAiy2U+W1Ecid+IasLKkPpJYB/IIGeYR7UC0UBaXmjiQF+9m6Q60fnNjdpPxjsfZYoHxAOCl3qI7J9+8O/nk2w+vZdY4EGJNnHzjzlToo+tx+3NlSAfCoiKE+C5WiPCeE7FC+uAbvZn6+9xLL6q/P/nNX7y/5TOXdRkwzgZANfJkP7L//vbpz6yZwck375reQ3wu3AmQM/U53OEdqyucfMP+uXAnQPRkAdfeTrxxx+oWwm0wtJBrbxFCCUTkezMD6Q4A9cmf/Rys3p93GYwX6UB6f1y4jUcIcfJNezj2C53ZtQi5g7jLe7xsntl99B+vvvvB55MPXdu7DIbD1pXNvMv/jEpiuiOQ8QAQS5GpB0G95Wh/CiXaNkJJsY0+hZpQelwuS7oD7wEgmmz28/bqpIPK4zXRqU+wEKylPEVvFGGcDYBOKDj14ECI52tlNnm5/87LdYTeryXkxRXZX/vlj0tL0D8xrShlHh1mFgDQD1089xMy/mY8Sg5mjtVOSszVjvYejLMBUIIu3nYaPgP7IGr9AS5XPvi8WgLUCTLcmxOvP/nNX3IlQKajyHyIuYpB4shbnPfAcgAoR9ns55vsT/Ycs5IDffth5AM3oTAfIWImaJNZcDrRjxDVRL7lIdoYIlynzhOsSHcAqEA2+3l0tFZbRcJH4SqO2w0/SqgbQ4lZak3WSoDrAFCN4oNv33x4jZ6A4Bp5k2uP7j/5zPxQW9rneBTu2w+v0/PfDjMkY9xOrj26/+RT80Pr0z/ffnSdnv+mZ0i62rZNSH5offrnu4+u0/PfZpEhZaHC4ghwHQAqU2PqATEER3sP78HJ4xyDGIJb+UrLSh4erRLNENL25o775lcyDdqOEiIMxvVVnFAE1bITzrrd0WCcDYBW5LEfGeyI8bdvPrw2MaFvP7wWseabFHo4FVpxoIkJmZ+s/oIUOnpXgsm3H12fOI35CQcptO0W+u6j6xOnMT9phVxOtNyiorNbqxQAwKfqzDfpQN4payGpj2JlTI01E+FAPPwqNVFg+k1cjqXD9JuI1KfCuFYWCVgRAIORbfDNmwApEm/IOxKg9B07hNx5SV4hIgFqSMbHTl3QvgLXAWBUcr7tVGhLX/uFHZ8zUx/364W4zwMxUx/XW3/4MFOf9Lf+mKlP6F2Tybqriv0nX0eXqhNcz/3grg8ATSj1ttPoHCh02M2RA/nToNBht+gcKHTYLToHqjbjAAAAspDZflT4i3CgIO9Rm9kcyNz3RCggUh8LhRtDkPeozUIdaPvL8/AeAMDsyDz4plBvUfMOxK1pFhIRQJUQZyBOGk+qEGN8THlVihBnIG6bFMLgm0I7tJVagcE3AJqwd3unlP0I4z2epg9NMqTozvtEaNWH1oTmOpmFDHuYZEhZhFwmpCdJLiHYj2LgQwNgjuzd3ik48VrGRBVJieG4xFGjiZBjOK6AkHuULK+Qd0sAAJgdxZ/70eOjHk+zx81RhWS3XX8zkFyodLJ4DwBeKjzjBYAV6wBMhsE30D8YfBv40JigwYK2TKJQqYnXAAAAAE0Xr5sDANSEv5aEGl4ufZcRQvMVkom1tVLROXf84BuoQ81Ro4FHqAY+NCZ6IKDtxzvnJVeYg9AwQi4HImpd0sRrUAfYTxYGPjQmHPuZxBpz0j9nuj+HVkL0wxI5hU6vCOV69sMmZHkjWgmhyZMz5mMzVgeiax3sp3dgP1kY+NCY0IGA86iZDv28M0GQUIoJ6ULeR8VTTGhF6LRP6KtcQtTj/Aer9pAi5F03QBe6evW3YrV2uWqd/BxTDwBYOvpCG8xFb9VmnKfTooX0zeKELp3Z5SxTom8WKXR61+s9k81ihT7zeo8Q4u3TnynniBPS90Dw9unP3j51uNm9ezcEY46l2gD2A8CiCVrkSUd5AzO61RcKXag+1IF072GLHAhxcCnQGMilxaZ71wl1IP5iaRNJvgPpY3SwHwCWS7QlKJjGkC50KVAo7iUpKg0KEArzniMhtjFEe4+E70DR3nP4K4YDTe4PjWk/e7d3Cj1kJ/eMJ/jmhevGD5CkvGVKwelfxwlN3qHCEUp5QVeYUJT3HP2WHeVjvUcSYCex3nP42yMHkgYziZPm3IQx7WdCXrdYv7mBV3CCAUh/w6HEu4dooYnxeE0l/eWQYUJc73G+hEyaCuFz7vdqTgVo3uYJpXjPodCpQyFrkJx8OL79IFMBIJoTb9xR/4jNgu7N0ELyv66A7R0Z8zrHyTfuyH/0Zn4hn/ecfPOO/OcRchsDx3tOvnn35Jt3n3/z7vNv3qWFCAfieM/zRyrPv3mXtrtJDqQwDQmrHgTj9TPkRqB/vBmJ6Tfyk+8+ul5USP7320AVwTC/ieWcLCe0ajkn37wrhPj2w2uhQj6Vu5NPpAN9k1vINLbnL94VQnzzN0po68qmd8I37CcYuAsYHiLXOfHGHasDbZ7ZjXhVvEuI8IZLZ3ZDXz1M5DqU0OndyeOifiF3rnPyzbsZHcj0HsXzb97N6EBEUvX8xbu0A3kZf/ANAGDFlZHQ42w01sygmlCWGQeHHI0v2YUCZhwc4/IM6/gb866PFZdnWMffgu/66EIXHUKnWHsb2X70KWpqxlr61DXcTAJzhxg+4lgC3zYShbx3aDhCnJ2sbOOcKOAT8t3mEWTWwoezE++tIA6cnbgcSDBGKUe2Hxq4CACt8M7UagNpPD3QfQHDGPPeT7nbM/3c+Dn30ovLWa8MjEHXoTO1cMUPruuzF8WY9gMA6IrxQqdGjYMb8gQud/ANAFCHIUPnEfCeeMa0H/6Sq/3sGYAeCH2sZ8HUuBETrZFh7jVPOGXu9Zj2I+ATALiRzwNGPKYj4VsU8eAh53lP/jOhqUIfhgpZYjPnsR5im8khEEeUaC0soQMh0qxFHL3+h2BY+wEAxEG7i/XbgyMzs8Yy11OitDG4vn2YXcjhPfKZU7vQ6rs+tV1dI4Xs37r2JoyXiipoB3J969rbylerCRftQK5vHz1zCunAfgAAU1wONPn8IHkEymUMEWvheIQcHsPPe9hC14I+j8blMUm5ke1aujwmMTcSy5n5tnd7p8ScaevrzQHon1v3t7eubG5/ed61JIHLgULNRgo9/PK8a0mCIKchUh+n0FGJg5yGSH0Ohb664FqSIMhpZOpDCD366oJrSYIgp3nEEXKsVhDkNDL1uXV/++pVz5bIfsBywYNTfOhEh3CFlgz2lObc8PbLYT8ALBTOBATO8JrXe+RXoeuEJgmlGQ+R+qwIuW+lsIWcGYkuRNyzYUKkPitCvHs2lNAzj5DOyINv1nftZd9txj0DUBnrEFxQ3GaaincILrPQV+fjVgUVR97DFnIOwTGEWJHaOwTnxes9K0LPnENwfqEQ7xGj2s8SFt0BIAvKgSKMQVkCJ+KkOFCQ0OFPohxIeU+IUIwDRWROcQ4UkTnFOVBE5oTBNwCWjhqzChofi7CEOkK37m8fDY6dD3phT6j3aEJhkVdtzxeSf4R6yaNooUAvUXlP0P2/tVduXAySAZU599KLrq+y3zl3ac39Fv2oxxWEPkRsTeL15fHpBCXCeNoLkZlQRNJjFfKmQaHG4xLypkGhxuMU8qVByqisQkSt27u9g+wHACDEateVyE4SLUGw+8j1hNK8R/8hnQYleo9gp0GJ3iPYaRDtPV6GzX7ovl7K8zquR4iUYt77Q8h+0hn1uILwZj86W1c2XXnJpf/6NGOpqgk9vPqq7eMDIcSle5F32h1CznidV2jbLbSZV+jf3UL/7RGis58xpx6Yc97UkSeahGuSGya/gZG4dX+b6PfMUejKnz6voCKEuPKnf9QR+j/VhP7/UkJj2o9EGoz+vu3JVym71dFzqew+9Mlv/hJRpLmQ66LQ6OfwtV/+OPv+ORe9q2uE3hLogZHtR6fQyFih3ZqooKki6Wu//LEcO9q7vVNoSaGiuB6fKnSB5An85Dd/kSewhAkBAAjMMLUU+5EUitE1Q/9rv/zxJ7/5y9yjp9W25YcZrXTiPeLo7IkjF88l5NpPV0nG+s2NrsoDFoWsfpPWvRT7ye4Q1fKe8XBlOWr0MosD6Sr63QWVBiXun6Mu6aeGBJWk2nyNwYSqzRWanZDpQJh4HQO8JxHivGU8pcSuCqWPsnUp55P/SgiBblnUdMpQJjfIR85+9B6oddghZfKbawIC4FDnXNW8In2mOwD0hsqBxKj202TNt2pBZ+43fqqhroh19CDj+BtncVt4EgASlQONaT+gc+hYjDwSgOFZv7kx7KoHIzHYvdn6jHpcRRmv1kEor0qiENZ8AwAA0IZF2I8+Hyl9V4kbAAAAEKMYM5FiAAANb0lEQVROPZDUea4eAAAGZv/J14XW5RvWflyP5uiPZTQoVjimiZZ7ZqWCiilkJddjp6VVlJZ3MsVc6ptovYTdZEZiFiFvI8p1gZqfuuzNdnJmrPNFo49oTPshDKbco/WFWL+5oboe+oIx2XUnQvrichlVBFnsjEOXusqk71Z6yYMxcF33/SdfFx1hVrrZhfSFE4uuXDVZobHQEVl3pdftcnEp1xGNaT808709M6nW5cxPX5mmkNtNqPDYZul1rwEQq904QDOm/egP1gotnA3zaLqMnrLrUdqEhOZ2JVRKr2B07qUXKxjPfPs0DcFJS2Hic3qmNZcnCsa0H7G6vu+klieGOdeMhsrUybJFyaGqCr2Baje0AAChDGs/wvb+t1lnPJISN2YrC+XtDXBUKrgO1nGIptVNJsCk3FUY2X4k2e/PZ9wbB+u1L5FiE0JFqbBCmiuBG6A7Uo7hJ2hUOMC200ezYL6yJGMxxrefkag5doRxqsVS88V01W7U60LqrYMgnZQ+HNZ8mwHNl5AqoVWNIQ+qAs1rHYTGFsKabwAAANow5uCbdy5y9GRl4rY5XoEKAAB8kP3EgFedAgBAImNmP0WR3mN9rqjoU5mcUqUL6TMOzNuzudbF8vp3lsMxd1JoNrl5jUbNgOssgQGhdJVZCI1sPxUykmoDbtZVpOR9v0KHWXS5KivWxSmyo68nlAtzDHZey9rSFOqFQAhCI9tP/aUtK4A5o1kodxr1h51nfTtwcn7UGct+LIMJWVfXHlLotV/+OHGK3cj2U4E5hpUeqPMCAlOl2sNMk0xuvi9cKHrGILRwIdhPMPr1qPDEfmWqpVaTiJz9pKllZ1s9Pzvf1Z70+5rl3rsBIQiNaT+c1j6viDAS+iuXRMkLIVvO5CaWZNbrqFaAeMtU3kyuB6G8LEfok9/8JfECYdWD3jEnpCn0qQdZGiqxQECdMWVFuRVOS6iMlwQL3zv6Mh4dhJYptHd7B/YzA5ovrSGOZr5lD6kVArc8KPO2c8azN0bGM4GodXlrAoSWKQT7mQed2E9erWpUO3uD0bzWQWhsIaz5BgAAoA2wHwAAAA2A/QAAAGgA7AcAAEADYD8zps5rIgEAoASwHwAAAA0ou+pB3Mqe6W+Bg1BRlfGEur1ANRnv1EGoc6FSz/0kLinNPwwIQWhgoWqMd+pShIIuEITihEo995P+OgPmHiAEoYGFqjHeqUsU4v8cQik/z5/9pL/jhLmH5QjxFyOYixCfdCHmA9u9HVE1QiuD+aB7oVrXXMh7gRKF+DVhPCFRIvvJ0rQ4b72EEIQGFqrGeKcuoxB9gdKFmDVhPCFFTvvJ2K2jDwNCEBpYqBrjnbrsQq4LlEvIWxPGE9LJNvjGKf3WlU3r57fub/P32Y+QSyW70PbVCy6hzXufzVGo2qnburJ56bS95Je6PKJqeNUfOiqD67y59hld61xVrr7QZId+oX93CP13QJXjCD1wCF3OL3R+5f8HR0L/326Q0GSbPPZDixEtU8faSid7XqbQ244AKoR49NWFOQp5ySjksp+H/R1RNThHRJ83Ub7WPepJyOzUU0KnHELPnELmbjlCbzmEHucX+vT4o4PjPx9//SpfyNwgg/0wG+fKAazy+Nmr6m/iMBQ+oZVLsqb9rS5/FiFXJcsv5HMFq0rPQq7QJtjRrQch3XjShao5EKFIHJEWczJUBl2oaK3LKLSuvXbaI8SIDHS8Zgq57EewHYgtdBS9DyZbxTtQBvsJdk43yoToeB3RFxAOEwoV4hiPTgYhd4NZEXI3nt6EiDCtQ4TsgYUqOBAn3KgjMkLNCpyEmBYKqnXFhQ4OG2ySUEhk8HZMCSEi1uk8ziDkNJ5jlSgH2ss18y3de/QtzdEMtf847xGrp05VkVChyc+9pArxGqe+ZZBQaBRIF2JGan3L8YRM6t/7oSvDgRAHPu8RR5XBOvZYotYVFDo6Wtlg44UCIwNR5WghpvcIcSCDaoKQ33uEEG+9+OlbL3qErDMRSq35Fuo9ktDtBc97JHqL4leUiVDoD+OF2I3zUChw++gfpggx45qEH9kTf1hZiHmvqAlxlYF/RBHeU1DIVh0JB/IIRUUG2hisQnzvOdre70AOIZb3KLwOZFJkzTfCe164+PvJJ//82y/0/7516tPHz17durLpmi9kE7Jcjxcu3jWEromjM7kmxNunPnv07EKQkLWGPb8q9M3frk02iBGytZnn31wV+tAQOv3Zo6/mIXRgE/rWELp0+rOHgUJWSzg5T6FqVKsM6icdCaU1WPUTi1DWyCDhxLpJRBWBQVX95PCvI+95YcMI3TuG0IufPv46QKjskqM6pvGoz1McyLbDu67P/3lUAw7CHcjkeZuQ/HBS1VKFVhuM/uGklUY00RQh5m7NKGAVOnkktGZ+58NlCSfdQqY3dCVUDZf38CvDvIVsDTZMyLAEZmRgDgMIdz/bGutkpDVNKETo00n5TO9RH5omxCf/4NvhAbz46UrpHd7D+dYjtHpJXN5jfssfBbJWMmsNY37rEVptNtY2w/y2tJB3jMK6gVfoQBsXCR110bFaguvblJGxakLVCKoMKdeoF6HVBhs6BEfsyvqtCj5vJQj5Yt1KUHUNwTnxeY/rW9cQnJXC7/thx3jrySoBfc0yEudAQoR0iqRQlANFkEWIs5MsQrQl8LfpR6gcQR0R/jZdCB0IcVCwjQT1SlWJIgjqZ8dhzxxI70mkxuvm4pIbwbDQ9EvC7H1EVDLrHrhCR7Yd0WyYN3UjAkEWoQj4Qgf228lcvFMJiLs+eYWqUS0JayAUWA9CG3X0EYWGqQShgs6xIhRrUUXsR+ZfodQ7WV0mQJZKxm48pnkQVTYlEFQTCtpbNaFcxLljz6R3MjILaac4bhwiYs5qnBB7JtsxcREsYkipaOoj5vuy7fF6bUCn2ojiydVbTRwOVv9FCEn6rFrzGssFXSGr9wY7/Zir/RwxXj8SAADmR0Qsnqv9aBOLo4f6Q4VA5ERYCFmF+qxaA575qEnVvQqVDXfR6GXa+fpV53arFLGfx2x5nbiJ6kcEXJV/dlkdU4JRUGjLG/UWJQRc8B8Cm43Qs0pCj7lCxyEuLlTqKzszSXmmh0ON7Cf6GLyBYHJCI66Ka0m+CY+eXdDNLaKbQ6xmaG4WLKQVjtk+J5tFdEU7F4rAuwd5+SoIVaOa10YLrVQYRg8zXiiwUU+E+P3f0O5v9BGldegD+L+xEb6XwbfJmYowarbQtejfBiW9tVP+lBnHTKFZDctwdjIvoXJEdBHijiiyLxJetyO7ceFIIVW0ciMr6V1tL9LnJmNXRROg/PYTcQxxR3goFHJV4irHkdBhPZNVja7QcdX9sHMd0nKShEJigfVbb7/MukGQELHYvpfxhKrRy6n727WVzJ43hODcFfvbIKGJLdJBZvItc/TFsSs61lk69JFCZHyepD7yxg9TqF7288+dX5iHcfyh1rtJOVNCiH/+7Rfmhfnn366Z1SL62svCfvO3a2adtn6Y0mxc+ywi9OE1MxxYPwwaPjI35gsxcQ2LzVeoGp2eOlv1DhMy7qnw21GQkHnzxhptrB8GCk3HhByxzvJhmJBx894avf/vzi+ih90kRZYcvXV/e+vK5uOvXzWfP/UkOgeHR84MoIdCz141n6havQCWRSyDvOdI6IL+jBgnDRKBliCFHj27YD71VkToqwvmc3ze+BLU24VQtFA1Kh+RXShr9VY/Kd2OJJPIIPGaTUT3lxHr7L8KFnJEb3oENCj1EeWyH5eL0kRMmXP1C1aZjhyzZ5uYQtMf0oPSEfNnXH03muiJOqG3waNvm0OoT+/RKX1EastjId59nVBLOBaKakcRQqEhhfkeUptQSJA8cHqPX8iIxnHe4xISuezHKhDqQJw3tlJC/qtyePY4b0EnTpm1nlkbEedl24QQv+XECVligVeI8cZoCNFCJkQdKETGI6JfTe0R4s0m4LwDmxIKbEfRQnwH4ngPKcQLqu7BJK7QUUz29hC83mN96dzaKzcukrv1QwscvzvPvRKDblEc8/QIuZc20i9bDiHnYk16RUwXIpafepRXyL2gFhGmFyukr5qTLlTtlduEYt4jUniEGNW7B6H1mxvMU8eJDHSkZgs5Yt0BqzfPFyLW0dnhCZk/3Lu9k8F+vDLMta04jRNCEBpYqBrjnbrSQmq3hYTM3Y4nZG6Qx344YsJ9JK6RVus+vULE+YIQhDoXqkb/p464AVNZaLLD7EKuHY4nNNkmm/0wJbPsDUIQGlioGuOduhJCroGjXELeEarBhPTNcs58M7O5aOgDgBCEBhaqxninLruQ6wLlEvLWhPGEdDJPvM5yDJwDgBCEBhaqxninLqMQfYHShZg1YTwhRc7BN7MQKXAOAEIQGlioGuOdunQh5gWCUIpQkcdO05sWcw8QgtDAQtUY79QlCvF/DqGUnxfJfhRxRhpx/IMJRXdAINS5UG/GozNYI4JQ50KZZ74BAAAAHEoNvgEAAAA0sB8AAAANgP0AAABoAOwHAABAA2A/AAAAGgD7AQAA0ADYDwAAgAbAfgAAADQA9gMAAKABsB8AAAANWDs4OGhdBgAAAIvj/wGRqnv1Kap25AAAAABJRU5ErkJggg==;movable=1;resizable=1;rotatable=1;deletable=1;editable=1;locked=0;connectable=1;" parent="sOJX9RBalDAA7VeVCdZa-7" vertex="1">
          <mxGeometry width="554" height="725" as="geometry" />
        </mxCell>
        <mxCell id="sOJX9RBalDAA7VeVCdZa-9" value="" style="group;movable=1;resizable=1;rotatable=1;deletable=1;editable=1;locked=0;connectable=1;" parent="sOJX9RBalDAA7VeVCdZa-7" vertex="1" connectable="0">
          <mxGeometry x="22" y="116" width="520" height="518" as="geometry" />
        </mxCell>
        <mxCell id="sOJX9RBalDAA7VeVCdZa-10" value="" style="group" parent="sOJX9RBalDAA7VeVCdZa-9" vertex="1" connectable="0">
          <mxGeometry y="455" width="136" height="30" as="geometry" />
        </mxCell>
        <mxCell id="sOJX9RBalDAA7VeVCdZa-11" value="" style="ellipse;whiteSpace=wrap;html=1;aspect=fixed;fillColor=none;strokeColor=#d6b656;strokeWidth=3;" parent="sOJX9RBalDAA7VeVCdZa-10" vertex="1">
          <mxGeometry width="30" height="30" as="geometry" />
        </mxCell>
        <mxCell id="sOJX9RBalDAA7VeVCdZa-12" value="" style="ellipse;whiteSpace=wrap;html=1;aspect=fixed;fillColor=none;strokeColor=#d6b656;strokeWidth=3;" parent="sOJX9RBalDAA7VeVCdZa-10" vertex="1">
          <mxGeometry x="35" width="30" height="30" as="geometry" />
        </mxCell>
        <mxCell id="sOJX9RBalDAA7VeVCdZa-13" value="" style="ellipse;whiteSpace=wrap;html=1;aspect=fixed;fillColor=none;strokeColor=#d6b656;strokeWidth=3;" parent="sOJX9RBalDAA7VeVCdZa-10" vertex="1">
          <mxGeometry x="71" width="30" height="30" as="geometry" />
        </mxCell>
        <mxCell id="sOJX9RBalDAA7VeVCdZa-14" value="" style="ellipse;whiteSpace=wrap;html=1;aspect=fixed;fillColor=none;strokeColor=#d6b656;strokeWidth=3;" parent="sOJX9RBalDAA7VeVCdZa-10" vertex="1">
          <mxGeometry x="106" width="30" height="30" as="geometry" />
        </mxCell>
        <mxCell id="sOJX9RBalDAA7VeVCdZa-15" value="" style="group" parent="sOJX9RBalDAA7VeVCdZa-9" vertex="1" connectable="0">
          <mxGeometry x="314" y="488" width="206" height="30" as="geometry" />
        </mxCell>
        <mxCell id="sOJX9RBalDAA7VeVCdZa-16" value="" style="ellipse;whiteSpace=wrap;html=1;aspect=fixed;fillColor=none;strokeColor=#d6b656;strokeWidth=3;" parent="sOJX9RBalDAA7VeVCdZa-15" vertex="1">
          <mxGeometry width="30" height="30" as="geometry" />
        </mxCell>
        <mxCell id="sOJX9RBalDAA7VeVCdZa-17" value="" style="ellipse;whiteSpace=wrap;html=1;aspect=fixed;fillColor=none;strokeColor=#d6b656;strokeWidth=3;" parent="sOJX9RBalDAA7VeVCdZa-15" vertex="1">
          <mxGeometry x="35" width="30" height="30" as="geometry" />
        </mxCell>
        <mxCell id="sOJX9RBalDAA7VeVCdZa-18" value="" style="ellipse;whiteSpace=wrap;html=1;aspect=fixed;fillColor=none;strokeColor=#d6b656;strokeWidth=3;" parent="sOJX9RBalDAA7VeVCdZa-15" vertex="1">
          <mxGeometry x="70" width="30" height="30" as="geometry" />
        </mxCell>
        <mxCell id="sOJX9RBalDAA7VeVCdZa-19" value="" style="ellipse;whiteSpace=wrap;html=1;aspect=fixed;fillColor=none;strokeColor=#d6b656;strokeWidth=3;" parent="sOJX9RBalDAA7VeVCdZa-15" vertex="1">
          <mxGeometry x="106" width="30" height="30" as="geometry" />
        </mxCell>
        <mxCell id="sOJX9RBalDAA7VeVCdZa-20" value="" style="ellipse;whiteSpace=wrap;html=1;aspect=fixed;fillColor=none;strokeColor=#d6b656;strokeWidth=3;" parent="sOJX9RBalDAA7VeVCdZa-15" vertex="1">
          <mxGeometry x="141" width="30" height="30" as="geometry" />
        </mxCell>
        <mxCell id="sOJX9RBalDAA7VeVCdZa-21" value="" style="ellipse;whiteSpace=wrap;html=1;aspect=fixed;fillColor=none;strokeColor=#d6b656;strokeWidth=3;" parent="sOJX9RBalDAA7VeVCdZa-15" vertex="1">
          <mxGeometry x="176" width="30" height="30" as="geometry" />
        </mxCell>
        <mxCell id="sOJX9RBalDAA7VeVCdZa-22" value="" style="group" parent="sOJX9RBalDAA7VeVCdZa-9" vertex="1" connectable="0">
          <mxGeometry x="314" y="416" width="206" height="30" as="geometry" />
        </mxCell>
        <mxCell id="sOJX9RBalDAA7VeVCdZa-23" value="" style="ellipse;whiteSpace=wrap;html=1;aspect=fixed;fillColor=none;strokeColor=#d6b656;strokeWidth=3;" parent="sOJX9RBalDAA7VeVCdZa-22" vertex="1">
          <mxGeometry width="30" height="30" as="geometry" />
        </mxCell>
        <mxCell id="sOJX9RBalDAA7VeVCdZa-24" value="" style="ellipse;whiteSpace=wrap;html=1;aspect=fixed;fillColor=none;strokeColor=#d6b656;strokeWidth=3;" parent="sOJX9RBalDAA7VeVCdZa-22" vertex="1">
          <mxGeometry x="35" width="30" height="30" as="geometry" />
        </mxCell>
        <mxCell id="sOJX9RBalDAA7VeVCdZa-25" value="" style="ellipse;whiteSpace=wrap;html=1;aspect=fixed;fillColor=none;strokeColor=#d6b656;strokeWidth=3;" parent="sOJX9RBalDAA7VeVCdZa-22" vertex="1">
          <mxGeometry x="70" width="30" height="30" as="geometry" />
        </mxCell>
        <mxCell id="sOJX9RBalDAA7VeVCdZa-26" value="" style="ellipse;whiteSpace=wrap;html=1;aspect=fixed;fillColor=none;strokeColor=#d6b656;strokeWidth=3;" parent="sOJX9RBalDAA7VeVCdZa-22" vertex="1">
          <mxGeometry x="106" width="30" height="30" as="geometry" />
        </mxCell>
        <mxCell id="sOJX9RBalDAA7VeVCdZa-27" value="" style="ellipse;whiteSpace=wrap;html=1;aspect=fixed;fillColor=none;strokeColor=#d6b656;strokeWidth=3;" parent="sOJX9RBalDAA7VeVCdZa-22" vertex="1">
          <mxGeometry x="141" width="30" height="30" as="geometry" />
        </mxCell>
        <mxCell id="sOJX9RBalDAA7VeVCdZa-28" value="" style="ellipse;whiteSpace=wrap;html=1;aspect=fixed;fillColor=none;strokeColor=#d6b656;strokeWidth=3;" parent="sOJX9RBalDAA7VeVCdZa-22" vertex="1">
          <mxGeometry x="176" width="30" height="30" as="geometry" />
        </mxCell>
        <mxCell id="sOJX9RBalDAA7VeVCdZa-29" value="" style="group" parent="sOJX9RBalDAA7VeVCdZa-9" vertex="1" connectable="0">
          <mxGeometry x="314" y="347" width="206" height="30" as="geometry" />
        </mxCell>
        <mxCell id="sOJX9RBalDAA7VeVCdZa-30" value="" style="ellipse;whiteSpace=wrap;html=1;aspect=fixed;fillColor=none;strokeColor=#d6b656;strokeWidth=3;" parent="sOJX9RBalDAA7VeVCdZa-29" vertex="1">
          <mxGeometry width="30" height="30" as="geometry" />
        </mxCell>
        <mxCell id="sOJX9RBalDAA7VeVCdZa-31" value="" style="ellipse;whiteSpace=wrap;html=1;aspect=fixed;fillColor=none;strokeColor=#d6b656;strokeWidth=3;" parent="sOJX9RBalDAA7VeVCdZa-29" vertex="1">
          <mxGeometry x="35" width="30" height="30" as="geometry" />
        </mxCell>
        <mxCell id="sOJX9RBalDAA7VeVCdZa-32" value="" style="ellipse;whiteSpace=wrap;html=1;aspect=fixed;fillColor=none;strokeColor=#d6b656;strokeWidth=3;" parent="sOJX9RBalDAA7VeVCdZa-29" vertex="1">
          <mxGeometry x="70" width="30" height="30" as="geometry" />
        </mxCell>
        <mxCell id="sOJX9RBalDAA7VeVCdZa-33" value="" style="ellipse;whiteSpace=wrap;html=1;aspect=fixed;fillColor=none;strokeColor=#d6b656;strokeWidth=3;" parent="sOJX9RBalDAA7VeVCdZa-29" vertex="1">
          <mxGeometry x="106" width="30" height="30" as="geometry" />
        </mxCell>
        <mxCell id="sOJX9RBalDAA7VeVCdZa-34" value="" style="ellipse;whiteSpace=wrap;html=1;aspect=fixed;fillColor=none;strokeColor=#d6b656;strokeWidth=3;" parent="sOJX9RBalDAA7VeVCdZa-29" vertex="1">
          <mxGeometry x="141" width="30" height="30" as="geometry" />
        </mxCell>
        <mxCell id="sOJX9RBalDAA7VeVCdZa-35" value="" style="ellipse;whiteSpace=wrap;html=1;aspect=fixed;fillColor=none;strokeColor=#d6b656;strokeWidth=3;" parent="sOJX9RBalDAA7VeVCdZa-29" vertex="1">
          <mxGeometry x="176" width="30" height="30" as="geometry" />
        </mxCell>
        <mxCell id="sOJX9RBalDAA7VeVCdZa-36" value="" style="group" parent="sOJX9RBalDAA7VeVCdZa-9" vertex="1" connectable="0">
          <mxGeometry x="16" y="173" width="439" height="30" as="geometry" />
        </mxCell>
        <mxCell id="sOJX9RBalDAA7VeVCdZa-37" value="" style="group" parent="sOJX9RBalDAA7VeVCdZa-36" vertex="1" connectable="0">
          <mxGeometry x="233" width="206" height="30" as="geometry" />
        </mxCell>
        <mxCell id="sOJX9RBalDAA7VeVCdZa-38" value="" style="ellipse;whiteSpace=wrap;html=1;aspect=fixed;fillColor=none;strokeColor=#d6b656;strokeWidth=3;" parent="sOJX9RBalDAA7VeVCdZa-37" vertex="1">
          <mxGeometry width="30" height="30" as="geometry" />
        </mxCell>
        <mxCell id="sOJX9RBalDAA7VeVCdZa-39" value="" style="ellipse;whiteSpace=wrap;html=1;aspect=fixed;fillColor=none;strokeColor=#d6b656;strokeWidth=3;" parent="sOJX9RBalDAA7VeVCdZa-37" vertex="1">
          <mxGeometry x="35" width="30" height="30" as="geometry" />
        </mxCell>
        <mxCell id="sOJX9RBalDAA7VeVCdZa-40" value="" style="ellipse;whiteSpace=wrap;html=1;aspect=fixed;fillColor=none;strokeColor=#d6b656;strokeWidth=3;" parent="sOJX9RBalDAA7VeVCdZa-37" vertex="1">
          <mxGeometry x="70" width="30" height="30" as="geometry" />
        </mxCell>
        <mxCell id="sOJX9RBalDAA7VeVCdZa-41" value="" style="ellipse;whiteSpace=wrap;html=1;aspect=fixed;fillColor=none;strokeColor=#d6b656;strokeWidth=3;" parent="sOJX9RBalDAA7VeVCdZa-37" vertex="1">
          <mxGeometry x="106" width="30" height="30" as="geometry" />
        </mxCell>
        <mxCell id="sOJX9RBalDAA7VeVCdZa-42" value="" style="ellipse;whiteSpace=wrap;html=1;aspect=fixed;fillColor=none;strokeColor=#d6b656;strokeWidth=3;" parent="sOJX9RBalDAA7VeVCdZa-37" vertex="1">
          <mxGeometry x="141" width="30" height="30" as="geometry" />
        </mxCell>
        <mxCell id="sOJX9RBalDAA7VeVCdZa-43" value="" style="ellipse;whiteSpace=wrap;html=1;aspect=fixed;fillColor=none;strokeColor=#d6b656;strokeWidth=3;" parent="sOJX9RBalDAA7VeVCdZa-37" vertex="1">
          <mxGeometry x="176" width="30" height="30" as="geometry" />
        </mxCell>
        <mxCell id="sOJX9RBalDAA7VeVCdZa-44" value="" style="group" parent="sOJX9RBalDAA7VeVCdZa-36" vertex="1" connectable="0">
          <mxGeometry width="206" height="30" as="geometry" />
        </mxCell>
        <mxCell id="sOJX9RBalDAA7VeVCdZa-45" value="" style="ellipse;whiteSpace=wrap;html=1;aspect=fixed;fillColor=none;strokeColor=#d6b656;strokeWidth=3;" parent="sOJX9RBalDAA7VeVCdZa-44" vertex="1">
          <mxGeometry width="30" height="30" as="geometry" />
        </mxCell>
        <mxCell id="sOJX9RBalDAA7VeVCdZa-46" value="" style="ellipse;whiteSpace=wrap;html=1;aspect=fixed;fillColor=none;strokeColor=#d6b656;strokeWidth=3;" parent="sOJX9RBalDAA7VeVCdZa-44" vertex="1">
          <mxGeometry x="35" width="30" height="30" as="geometry" />
        </mxCell>
        <mxCell id="sOJX9RBalDAA7VeVCdZa-47" value="" style="ellipse;whiteSpace=wrap;html=1;aspect=fixed;fillColor=none;strokeColor=#d6b656;strokeWidth=3;" parent="sOJX9RBalDAA7VeVCdZa-44" vertex="1">
          <mxGeometry x="70" width="30" height="30" as="geometry" />
        </mxCell>
        <mxCell id="sOJX9RBalDAA7VeVCdZa-48" value="" style="ellipse;whiteSpace=wrap;html=1;aspect=fixed;fillColor=none;strokeColor=#d6b656;strokeWidth=3;" parent="sOJX9RBalDAA7VeVCdZa-44" vertex="1">
          <mxGeometry x="106" width="30" height="30" as="geometry" />
        </mxCell>
        <mxCell id="sOJX9RBalDAA7VeVCdZa-49" value="" style="ellipse;whiteSpace=wrap;html=1;aspect=fixed;fillColor=none;strokeColor=#d6b656;strokeWidth=3;" parent="sOJX9RBalDAA7VeVCdZa-44" vertex="1">
          <mxGeometry x="141" width="30" height="30" as="geometry" />
        </mxCell>
        <mxCell id="sOJX9RBalDAA7VeVCdZa-50" value="" style="ellipse;whiteSpace=wrap;html=1;aspect=fixed;fillColor=none;strokeColor=#d6b656;strokeWidth=3;" parent="sOJX9RBalDAA7VeVCdZa-44" vertex="1">
          <mxGeometry x="176" width="30" height="30" as="geometry" />
        </mxCell>
        <mxCell id="sOJX9RBalDAA7VeVCdZa-51" value="" style="group" parent="sOJX9RBalDAA7VeVCdZa-9" vertex="1" connectable="0">
          <mxGeometry x="16" y="83" width="439" height="30" as="geometry" />
        </mxCell>
        <mxCell id="sOJX9RBalDAA7VeVCdZa-52" value="" style="group" parent="sOJX9RBalDAA7VeVCdZa-51" vertex="1" connectable="0">
          <mxGeometry x="233" width="206" height="30" as="geometry" />
        </mxCell>
        <mxCell id="sOJX9RBalDAA7VeVCdZa-53" value="" style="ellipse;whiteSpace=wrap;html=1;aspect=fixed;fillColor=none;strokeColor=#d6b656;strokeWidth=3;" parent="sOJX9RBalDAA7VeVCdZa-52" vertex="1">
          <mxGeometry width="30" height="30" as="geometry" />
        </mxCell>
        <mxCell id="sOJX9RBalDAA7VeVCdZa-54" value="" style="ellipse;whiteSpace=wrap;html=1;aspect=fixed;fillColor=none;strokeColor=#d6b656;strokeWidth=3;" parent="sOJX9RBalDAA7VeVCdZa-52" vertex="1">
          <mxGeometry x="35" width="30" height="30" as="geometry" />
        </mxCell>
        <mxCell id="sOJX9RBalDAA7VeVCdZa-55" value="" style="ellipse;whiteSpace=wrap;html=1;aspect=fixed;fillColor=none;strokeColor=#d6b656;strokeWidth=3;" parent="sOJX9RBalDAA7VeVCdZa-52" vertex="1">
          <mxGeometry x="70" width="30" height="30" as="geometry" />
        </mxCell>
        <mxCell id="sOJX9RBalDAA7VeVCdZa-56" value="" style="ellipse;whiteSpace=wrap;html=1;aspect=fixed;fillColor=none;strokeColor=#d6b656;strokeWidth=3;" parent="sOJX9RBalDAA7VeVCdZa-52" vertex="1">
          <mxGeometry x="106" width="30" height="30" as="geometry" />
        </mxCell>
        <mxCell id="sOJX9RBalDAA7VeVCdZa-57" value="" style="ellipse;whiteSpace=wrap;html=1;aspect=fixed;fillColor=none;strokeColor=#d6b656;strokeWidth=3;" parent="sOJX9RBalDAA7VeVCdZa-52" vertex="1">
          <mxGeometry x="141" width="30" height="30" as="geometry" />
        </mxCell>
        <mxCell id="sOJX9RBalDAA7VeVCdZa-58" value="" style="ellipse;whiteSpace=wrap;html=1;aspect=fixed;fillColor=none;strokeColor=#d6b656;strokeWidth=3;" parent="sOJX9RBalDAA7VeVCdZa-52" vertex="1">
          <mxGeometry x="176" width="30" height="30" as="geometry" />
        </mxCell>
        <mxCell id="sOJX9RBalDAA7VeVCdZa-59" value="" style="group" parent="sOJX9RBalDAA7VeVCdZa-51" vertex="1" connectable="0">
          <mxGeometry width="206" height="30" as="geometry" />
        </mxCell>
        <mxCell id="sOJX9RBalDAA7VeVCdZa-60" value="" style="ellipse;whiteSpace=wrap;html=1;aspect=fixed;fillColor=none;strokeColor=#d6b656;strokeWidth=3;" parent="sOJX9RBalDAA7VeVCdZa-59" vertex="1">
          <mxGeometry width="30" height="30" as="geometry" />
        </mxCell>
        <mxCell id="sOJX9RBalDAA7VeVCdZa-61" value="" style="ellipse;whiteSpace=wrap;html=1;aspect=fixed;fillColor=none;strokeColor=#d6b656;strokeWidth=3;" parent="sOJX9RBalDAA7VeVCdZa-59" vertex="1">
          <mxGeometry x="35" width="30" height="30" as="geometry" />
        </mxCell>
        <mxCell id="sOJX9RBalDAA7VeVCdZa-62" value="" style="ellipse;whiteSpace=wrap;html=1;aspect=fixed;fillColor=none;strokeColor=#d6b656;strokeWidth=3;" parent="sOJX9RBalDAA7VeVCdZa-59" vertex="1">
          <mxGeometry x="70" width="30" height="30" as="geometry" />
        </mxCell>
        <mxCell id="sOJX9RBalDAA7VeVCdZa-63" value="" style="ellipse;whiteSpace=wrap;html=1;aspect=fixed;fillColor=none;strokeColor=#d6b656;strokeWidth=3;" parent="sOJX9RBalDAA7VeVCdZa-59" vertex="1">
          <mxGeometry x="106" width="30" height="30" as="geometry" />
        </mxCell>
        <mxCell id="sOJX9RBalDAA7VeVCdZa-64" value="" style="ellipse;whiteSpace=wrap;html=1;aspect=fixed;fillColor=none;strokeColor=#d6b656;strokeWidth=3;" parent="sOJX9RBalDAA7VeVCdZa-59" vertex="1">
          <mxGeometry x="141" width="30" height="30" as="geometry" />
        </mxCell>
        <mxCell id="sOJX9RBalDAA7VeVCdZa-65" value="" style="ellipse;whiteSpace=wrap;html=1;aspect=fixed;fillColor=none;strokeColor=#d6b656;strokeWidth=3;" parent="sOJX9RBalDAA7VeVCdZa-59" vertex="1">
          <mxGeometry x="176" width="30" height="30" as="geometry" />
        </mxCell>
        <mxCell id="sOJX9RBalDAA7VeVCdZa-66" value="" style="group" parent="sOJX9RBalDAA7VeVCdZa-9" vertex="1" connectable="0">
          <mxGeometry x="16" width="439" height="30" as="geometry" />
        </mxCell>
        <mxCell id="sOJX9RBalDAA7VeVCdZa-67" value="" style="group;movable=1;resizable=1;rotatable=1;deletable=1;editable=1;locked=0;connectable=1;" parent="sOJX9RBalDAA7VeVCdZa-66" vertex="1" connectable="0">
          <mxGeometry x="233" width="206" height="30" as="geometry" />
        </mxCell>
        <mxCell id="sOJX9RBalDAA7VeVCdZa-68" value="" style="ellipse;whiteSpace=wrap;html=1;aspect=fixed;fillColor=none;strokeColor=#d6b656;strokeWidth=3;" parent="sOJX9RBalDAA7VeVCdZa-67" vertex="1">
          <mxGeometry x="-2" width="30" height="30" as="geometry" />
        </mxCell>
        <mxCell id="sOJX9RBalDAA7VeVCdZa-69" value="" style="ellipse;whiteSpace=wrap;html=1;aspect=fixed;fillColor=none;strokeColor=#d6b656;strokeWidth=3;" parent="sOJX9RBalDAA7VeVCdZa-67" vertex="1">
          <mxGeometry x="33" width="30" height="30" as="geometry" />
        </mxCell>
        <mxCell id="sOJX9RBalDAA7VeVCdZa-70" value="" style="ellipse;whiteSpace=wrap;html=1;aspect=fixed;fillColor=none;strokeColor=#d6b656;strokeWidth=3;" parent="sOJX9RBalDAA7VeVCdZa-67" vertex="1">
          <mxGeometry x="68" width="30" height="30" as="geometry" />
        </mxCell>
        <mxCell id="sOJX9RBalDAA7VeVCdZa-71" value="" style="ellipse;whiteSpace=wrap;html=1;aspect=fixed;fillColor=none;strokeColor=#d6b656;strokeWidth=3;" parent="sOJX9RBalDAA7VeVCdZa-67" vertex="1">
          <mxGeometry x="103" width="30" height="30" as="geometry" />
        </mxCell>
        <mxCell id="sOJX9RBalDAA7VeVCdZa-72" value="" style="ellipse;whiteSpace=wrap;html=1;aspect=fixed;fillColor=none;strokeColor=#d6b656;strokeWidth=3;" parent="sOJX9RBalDAA7VeVCdZa-67" vertex="1">
          <mxGeometry x="138" width="30" height="30" as="geometry" />
        </mxCell>
        <mxCell id="sOJX9RBalDAA7VeVCdZa-73" value="" style="ellipse;whiteSpace=wrap;html=1;aspect=fixed;fillColor=none;strokeColor=#d6b656;strokeWidth=3;" parent="sOJX9RBalDAA7VeVCdZa-67" vertex="1">
          <mxGeometry x="172" width="30" height="30" as="geometry" />
        </mxCell>
        <mxCell id="sOJX9RBalDAA7VeVCdZa-1" value="" style="shape=image;aspect=fixed;image=data:image/png,iVBORw0KGgoAAAANSUhEUgAAATYAAACOCAIAAAA0MLNSAAAACXBIWXMAABJ0AAASdAHeZh94AAAgAElEQVR4nOx9d3wb9fn/I+m097LlvfeIs+zsDSQhEEhICJRNm0JpoYXu0vFtC7T9UdoChYbRsskiCTSTkD2cxBlOvOItWx7ykrX36X5/nKMo8i3Z8gjl/coL5LvT5z6ne57P59kPy+5wwjf4Bt9gsoI90RP4Bt/gG1DhGxb9Bt9gUgMJ/aNOb3zqz5vP1egnaDLf4Bv8ryNFp1pamvvqj9cHj7CCuuiJyqYVT78+QRP7Bt/gG1zHLx9d/stHl+Ofr++iu45eDrtOJODmJWvzUjSd/dbGDlNHn3X85vgNvsHXGtTM9eJ/9j+wojRZp4JQFq1t7Q69aPHU1J/eN08rFwWPfHWh5edvfTXGM/8G3+Drj+nZ8b9+aGGiVho8cuJK2+/eO2pxeIJH2oymcBYNxas/WDGnMEkkEkmkUh6Pj6Kow25fNj39/KaNM7771lg/wP8gOGxWYZK8IEkmE3FlQoSPcKJ9Bwxjdp3N5be5/IYBZ43B2jXoivY0vgE8fFvJD9aUsjkctVrN5/MDgYDX651fDIdeefi2n3w4YA3/zQlYdM38vDmFSXyBIDklNXhQLpdLpdLOzo7n1s/569bTY/oM/1MQ8TkrSuKWFsVw2Cz8CIIgbPaEWdr9fn8gECjLUt0zC/S9jn2Vxkq9eaIm8/XDsunpP1hTyuPx0jMyQ48L+IKODsNPNswdLqgSsOjqebksDpKSnBJ2XCqTKZ2q+5YWnq3rOFnVHt2p/29iVrb6/nnJfIQtFotjY2PxZRVFUafTiaLoOE+GxWLxeDyRSISiqM1m6+7uBoAnb8240mb595FWl3e85/O1xL1LCgEgNlYXdlwilcbqdMumw7Lp6V9daAk9Fc6iQj63IFUrk0jYHAJZSyQSDQ6aYhTiqE77fxSrpsfdMT0eQZCpU6fGx8fzeLympqbm5maTyTSBs+JyuQkJCRkZGTk5OVartaGhAUD/s7ty3z3Uahj4JhBttNApJQKhUCyRDD8lEokBoDAthoZF81O0AMDlcQlvIJXJoBM0ITakbzAyrJwad8f0eI1GU1ZWJhKJent7KysrLRbLRM8LfD6fXq/X6/VZWVklJSUzZ87UarUVFRVPLc/8866rgw7vRE/w5kacWiIh4k8A4PP5AJCXogk7Hq7z1Lb1AYDXS/wmLBYzAPRbvllNR4XSTNXqmfEqlWru3Lkikai9vf3YsWOTgT9D0djYePz4cQzDUlNTZ8+erRRzH1ucOsFzuvnRNWCzWIidl263GwDq2vrDjofvoi6P70pzT1EGqNUanK1DYbPZAaDX7IjOfCNBglaekaBO1SkStPJYlVQtF8nFArGQJ+Jf3/AtDrfN6Rm0uvrM9q5+m6HX3NJlajT0e3z+8Z8wGdgs1j2zEtkcTllZGY/HMxqNZ8+enehJEaOnp6e8vHzOnDmJiYkFBQUANctLdPsrjRM9rxsQp5FlJqhTdcoErTxWJdHIxXKJQCzgiQTXCcOKE4bN1Wd2dPVbDb2W1i5TY0e/y+Mb59n2DDri1VKLxSyXK8JO2e02AKhu7Q07TmAu2nKkujgjtquzIyU1LdS0aLGY7TbrW/+9MD62IoTDnlWQPCM3sSQrvihdp5AKab8SoyQWIerb+640dV9o6DxXa2gzDkZ7ppFhxVSdXMQtLiqSSCQoil64cGFi50ONzs7Oq1ev5ubmZmZmNjU1rZwWd7yuz+mZSNMRm8WaVZA8I2+IMFQyerWLjDAaDf1Xmrsv1neeqzO0dI2HCeBfn5/f9Nyq/r4+iUTKCTH3WC2W/r6+z47VhimiQMiiByqaU2IVG++Y3lBfr1DIxWKJ1+e1Wq0et/tCQ9dbu8eWpGJVkltmZC2aljF/ShrCiY7vISdZm5OsXbekGACaOweOXWo5dKHpTM3EGKUX5GsFAkFiYiIAXL161emc7FpDbW1teno6j8fLzs6uqqoqy1QfqQlf6ccBGoX4lhlZi6dlzJ+SxuNGx2+claTJStKsXVQEAK3dpuOVrYfON52q0kdlcEJcaOj67l93b3puVWNDvUwmk0ilqB+1O+wOu93i8Lz0ycnhXyEOXXhr94WK+s7nH1wAgJnNQ26xnSevvvDh8TGaOpvNumt+wR1z8xeUpFFchmFYIBAIBAJYCPBTLBYL/y+bzcb/S+hdzEhQZySoH1s1s6vfuvt03Rcnauvaxo/g0mLEChFXLpcLhUIAaG1tHbdbjxgoira1tWVlZcXExABAYbJsnFl09fyCO+bmLZ6WQXHN6AkjLU6VFqd6eMX0HpNtz+mrn5+srW4ZE5H+QkPX+t9t+9PGZekAVuuQXrrvbNOv/32Y8HpiFgWAS43GDb//TCMXaeUiu8s7YHWGRidFEWnxqvuWlaxbXCwTh6u+ABAIBPx+P3oNgUCA+cj4++BwOBwOB0EQBLnhYeM1so13lm28s+x0VduWQ5d3n64b7ZMwQHa8FAA0Gg0AmEwml+vmCN8xGo1ZWVk8Hk8qleYnMIxTGi2SYxUblpWsX1KsJNJxxo4wYlXSx1bNfGzVzHO1hi2HLu86UTPaJxmGlu7Bb72wgyFzkbIoAPj8aPeArXvAFvUp4ihM1z16+4y75heEHccwzOfz+f1+n88X0U8/fBz8/QWPcLlcBEG4XG6oGjCnKGVOUcrT6+a+v+/Cx19eGvHtmEAmROCaeT24gk5+BK3NPB6PzWZJBIjdPYYWuLyUmEdun3HPoqKw42NHGDhVhBFGaX5SaX4SThjv74uyfsecuahYdOyQmaB+4u7Zdy8IZ06v1+v1en2+sbKz+Xw+n8/ncrk4HA6Xy+XxeMFXkpGg/v23b31s1cxNu85sPXxljCYgE3LhmuhF5tmahPB4PACAoiiXywUAmZA7RiyaolM+efesdYuLw46PNWH4/X6/3+9yudhsNo/HCyWMFJ3yN48ue3zVzE2fnx3rFZwQ482iPC7nR/fO33hnWehBFEU9Ho/X68WYBnuPFvgi6na7EQTh8XhB91KqTvnSEyvWL5nyj20nT1yOvqLoRzEA8Pv9Xq8XZ9SbCB6PB39BfnTkOxgZ2CzWj+6d/701s0MPjj9hBAIBt9s9nDAStPLff/vW9UuK/7715JGLzeMzGRzjyqJ3zMv/6f0L4zWy4BGfz+fxeMZudaQFvny63W4+n8/n83G2mZod/96v1m85dPnPHx21ONxRvJ3V5QMAn8/ncDgEAkEURx5TiMViDMMcDgf+pqyuKG+hK2bl/ORbi1Jir7sKJwlhuFwuPp8vEAhwwihM173z83t2HKv+80dH+y3jFB0wTiwqlwh+/ciyUMnW5/O53W6/f1IEFQQCAZfLhTNq8H3cu3TK4mkZf3z/0J7TV6N1IzyAzuVymc1mlUoVrWHHGkql0mw2Yxjmcrnsbr/bFzW/qEjA/c0jy3B/GI4JZ85QYBiGb6oCgSBIGGsWFi6elvHC+4d2Ho++JWk4xiPpafG0jN1/eTTInyiK2u12u90+SfgzCPx9WCwWPBQLAGKUkld/uPp3j90SrVtUt1sBwGKx4Pe6WbhUo9EMDg56PB6Xy1XVHrVAxXnFqbv/8miQP4OEMUn4MxRhhKGUCl/+/qoXNi5nj722MuYs+tTaOe/8/J6gcOtyuaxW6yR8B0Hge0XoJB9cPm37Hx/MTFSPfvB+m6e932kaHMRlXa1WO/oxxxpSqRR3JPb39wNAtSE6LLpxddn7z9+bolPif96MhLFh2ZRdf3o4PzVmTO87tiz61x+sevbe+fhnn88Xug5NcuArejD0Z2p2/PY/PrhsRib1t5jgyys9gGF4NqZEIlEqlaMfc0wRExODYZjX6zUajYYB5/nmKERQ/unJFT/71iL8s8/ns1qtNx1h4BasgrTY7S88uHJ27tjdcaxYVKsQf/p/9wd9nk6n0263j8aXNSHweDxWqxUXyKUi/qafrv3WrVNHOWZFk6mh29bX14fnhSYlJQ1PV5g8iI+PVygUANDW1gYAey+ONuBGLhF88Py9QbeKy+Wy2+3jn78+SuCEgW+nfC7y2o9WP3r7jDG615iwaEaC+qPf3FealwQAeAo/7li7GYHPP7jG//7btz51o2NgBPjkZLvbF2htbbXb7VwuNzMzUySajCm48fHxcXFxANDe3m61Wg9V9V5sHdUWmhQj/+g3G+YWp8KwH/amQyAQsNvtwfk///DSH10TGKOL6Ft0c1Ni3v35PTq1FAC8Xm9QJIgK/H6/0+m02Ww2mw2XN7xeL4qiLBaLy+UKBAKxWCyVSqVSqUQiiaJXw+VyoSgqFosB4NkNC/g85JXNJ0Y8Wveg+51DLd9fnllfX5+amqpWq3Nzcw0GQ19fX7QmPEoIBIKEhASFQhEIBFpbW81m82W9eWu5YTRjpser3vnFOtyzgqviUSQMFEUdDofdbrdarQ6HAycMv98fShgSiQQnDDxAOirACUMkErFYrO+vnSPgIS99eCRag+OIMotmJ2mC/Ol2u6MSg+pwOIxGY1tbW2NjI67CMQSenJGRkZGYmKhWq0dZs8vr9QYCAbFYzGazn1ozBzB4ZcvIubSq3fKPvY3fXpqu1+utVqtOp0tOTo6JiTGZTPjeMiGyH4/HE4vFcrkcNzX39/d3d3d7vd4Tdf0fnWgbzcipOmWQPz0eT1Tye5xOZ09Pj16vb2pq6uzsZP5FLpcbShgcohpAzIFvEmKxmMPhfPuOUgzgT1Hl0uvV6Fc88/qJS02jGStRK9/y+2/h/Im7GUczmsViaWpqunjxYkS/PgXKysoKCgoSEhJG80rYbLZEIsFHePnT42/uLB/NlGLk/HvKEqekKgBAKpXKZDKBQMDlcie2AqDP57PZbFar1ev1un2BPRe7vrzcM5oxtQrxh7/ekJWkgWgQhtVqbW5uvnDhQkdHx2jGCWLGjBlFRUUJCQlh8fQRgc1mi8VifITXtp/6+1aCtLKIsO/V788vyYQosqiQz/30d/cXZegAwOl0jlj5RFG0paWlvLy8pSU8tzVaWLp0aXFxsVwuH9nXWSyWRCLBX8bzbx349KvKUc6nMEm+MF9bmCwbBycbc/RaPBdbB/dXGkdZ+4/DZn/yu/tm5CbC6AgjEAjo9fry8vLGxsbRzIcCixcvLi4uHrGNncViicViPIz5D+8dem/v+dFMJvosuumna5bNyAIAh8MxsgBxn89XXV29b9++8YkvLykpmTNnDp4DGSlCufTxl7YfvRSFoE2Ew8pLkMlFXKkQ4SETtovipa67Bl2dpugkyr36o9W3z86FUfCn3++vra3dt2/f+OTuFRUVzZ07V6cLr6PJEBKJBOfSp/66a//Z+hFPI8ii0dFFf/nQEpw/cTU90q8HAoHq6uodO3ZEZTIMUVlZWVlZWVJSsnDhwkgXTgzD7HY7zqUvf//2e371oX7U9Vb8KBbFwJ1Jgh/ft2A0/IlhWG1t7c6dO8czEK2qqqqqqqqwsHDx4sVqdcTxKna7XSqV4oTR2m2qbx+tCTAKq/U9i4oeXzUTAFwu1wheg8FgeOONN8aZP4OorKz8xz/+ceLEiUhXFjysHEVRpVT40pMrxmh6NzXumJv35N2zYaSE0dXVtWnTpm3btk1IoGh1dfVrr7125MiREcwc9/QK+dw/RYMwOL/81a/wTx/vP9dujLjCUlai5p2f38Nhs/Fo44i+6/F4Dh8+/MUXX0x4/Z7W1tYLFy4kJSVFpKBiGOb3+3k8XqJWLhHyxyJ57eZFcqzi7Z/dw+cieGRvRN/1+XzHjh3bsWOH3W4fo+kxRFtb27lz5xITEyOVs3DC0KmkGrl4ZMlrD6woTdGpYPQs+uoP70zRKX0+X6Rs1tXV9c4774zGJoQgKJfr5/G8PJ6fy/UjCMpmYwAsDBuJ0cXn8126dInNZiclJTHP5MTz93k83rTshDp97/hUkbsp8MrTq3KStbj/M6Iv9vT0/Pvf/66vH7kWR0QYgRETBoqily9fxjAsOTmZuaU9SBjFGXGtXaYGQ3h1XFoEWXRUuugTd82aXZgSCAQifQ2VlZW7du2K9HYikUsgcAkEHj7fw+X6WCxixzeKcrxentstcLsFLpfQ54vgGQ8fPtza2rpmzRqpVEp/NQAA4GUchELhrx5ecvxyq8c7udJ3JgSP3j5j0dSMQCAQ6cJdXV29ffv2SG8nFLqEQqaE4fHw3W6B0ymKiDCOHTvW3Ny8bt065nJWCGEsPX651WIfoatp5LtoZqLmzR/fDQARBd9iGHbo0KEvv/yS+Y2kUrtGM6DT9SgUFrHYyed7ORyUYp9jszEu1y8UuqVSu1I5KJE4EARFUQ6KMnKHms3ms2fP5uTkkBX2Hw6/348giFImlgj5xyrHyld0syApRvHWz9ay2SxcV2f+xaNHj+7du5f59VKpXa026XRGpTICwhAI3BKJXakclErtCIKiKMKQMKxW65kzZ7Kzs5kv336/n8PhyMRChUR46EJk7pIo7KLPbZgPAC6Xi7k27/f7P//886qqKiYX83g+udwsl1s5HBQAOBwWn4+w2cBmszgcFpvNCv2MYRiKYoEABAJYIHD9s9+PAbgFArdG0+9wiC0Wuc1Gz3iBQOBf//rXI488kpqayvDRnE6nTCZ7eMX0veVXz1+Njkv9JsVz981HOGy32808swxF0T179ly8eJHJxTyeTy63yOWW4YRxjR7oCQNFMQAPn+9RqwecTpHFIrdaGTHeW2+99eCDD2ZkUFUMDYXT6UQQ5N6lU/aWXz15Rc/wW6EYIYveVpp9a2k2XlKE4Ve8Xu+2bduY+J15PJ9KZZLLLRwOSyRChEKuSMTh8UZofA4EMJcLdTpRPt8tFjs8Hv7goNJikdF+8b333nvggQcyMxkloOFCnVgsfnrd3If+sCXsbKJW/tgdZduPXK5tvR6m88uHlp6tbT90/oYfZP6UtDlFaUUZun6L42J958cHLqABRoGsLBb8YN382+fkJccq6/Q9O49VbT18GZe6k2OVqxcUcDkcAMAA6+yznr7S2tF3g4Nn7aLihVPT1XJxn9lx5ELj58MqUy6flbthWckv3tzbPUBVuHDh1PQ75ubjJUWYTBsA/H7/jh07amtraa/kcv0qlUmhMHM4LKGQIxIJRk8YLhcqEHhEom61esBkUlos9HLshx9+eN999+Xk5DC5C4ZhTqdTIpE8s27euLLoU2vnAABzTcPv92/fvp0Jf8bEDCQlWUQiRCQSj/jXDwWbzRKLEbEYAYBAAHM6UZ3O1Ndn7+5WOp004dQfffTRww8/nJZGVX07CK/Xy+Vy5xalrpqTF1aV99FVpd+5s0wjFz39tyEN/N5lJU+umbNganooi37/nrk/e2BJ8M+1i4oTY+Qvvn+Iyd3//L1V990ylCg3My9pZl7S99bMmb3xNQB49r4FaxfdUFPP7fX/7J+7dxwbEmde+O6Kh1Zcz6Vau6goRiV9+/MzwSMcNutP37tdLRMVZcZRsyieBsScPwOBwK5du5jwp0YzkJJiEYkQoVDM50efMFwuNDZ2cGDA3tWldDhoEo8+/fTTb33rW1lZWUxuhJd6mZaTcM/iou1HGImQN8wz0i8AwLrFxQVpsRGFev/3v/9taGigvkap9JSW9syc6YmPFyoU3KjwZxjYbJZEgmi1/Px81pw5A2lpVlrj7fvvv9/V1cVwfJfLhWHYxtVlJOdZwz5dP7KgJB3nz4o6w5s7Tx+saPCjgebOASb3TdDKcf78z56KjX/e9unBSx6vP9hTSMTnAUBnn+VMTduZmrZGQ5+Ahzz/yDL87Kq5+Th/nqlpO1c71ETjFw8ukYquZ7HOKUpVy0RoADtbQxVMf8fcvOk5iRGVpNq7d291dTX1NQqFd8aMnrKyIcKICn+GAWdXrZafm8ueM8eUkWFls2kI4+OPPzYYmKb+4ITx3dWzRjC3keyij62aidfjYnj90aNHL1++THaWxWIJhcKMDGtqKm6sGqc4VaGQU1joSE0N1NXF9PcHKKjqrbfe+uEPf4hnNlMDL/FYkBa7en7BcFmRGvcsLgaAnceqgjstc9xSmg0A9e29v3l7PwDsK7/603/uDrtmx9Gqv3x8BACEfG7Dlp9rlZKkWIWhx3zHvHwAeH/v+eff2nf0n98DADSAcRFObkpMRd0QCa6eXwgAp67QmCVxwmCu+5w8efL8edJAVpww0tKs6en4OjVOhCEQcPLzHSkp6NWr2r4+FoVG/e677z799NNMClDhRVXS41Ublk7ZfIiUFwgR8YJ057z87CQN89dQU1Nz9OhRwlNcLlcul8fHx0yfPpCaOjGpkhKJa8aM9txcRKPRCIVCsk118+bNDI0fuHDx8Ippkc6krCAFAEbWt8Lm8ABAgkaeqCVQpcKeKT81Fv/g86MAkByrBIArzd0lWfEZCWoA6O63AIBONWQ+QTjsVfPyAYB60bm1NLs4I87tdjPMAq2vr//qq68ITyEIIpfLdbqYadNM6ekTQxhisXv6dENeHkuj0eDpoISXffTRRwzj0jweD4qiD62YHulMIt5FH1o+ze/3M4yK6uvr27Zt2/DjbDZbJpOJRCI+35Oe3iASReQ9iwGIBVADyAHEAHwADgAG4ANwAtgABgH6ALoBGK0jLBaWltbK5Sb29MSiKDo4ODj8RzcajYcPH77tttuYDOh2u6dkxi8oST9+zQETp5YBwLwpaZv/8CB+JFYpAQCpiIf/iXDY+DWGHjOTW4Th8xPVP3twcZxatv9vG9/bW3GwouFy43XhHGeZsoLkv/7gzpLs+FilFAD6LQ7jgA0AONckuvVLSwCgvLoNZ07WteOLp2eKBTw/Gth7urYsP7mysYuwX+uDt03DK1MzmbDJZPr000+HH2exWDKZTCwWc7m+jIxGsZi5v50LEAOgAlACyAFEACIADkAAwAfgAHAAmAFMAAMATJ2LKSltXG58d3ecVCo1m83Dn85kMn355ZerVq1iMprb7c5J1t5Wln3gLI3SF4rIWHRGbuLU7ASGgQooim7dunX4cR6Pp1QqORyOQODOzGzi8xnGQCYAZACkAJDZeDgAAgAVQMq1I90ArQCNAPS3SEzsYLMD3d1xGo3GbrfbbLaw3aC8vDwtLS07O5t2KK/XKxAI7l1SHGTRZJ0CALQKsVYhDr1SKhqqC6GQCvFleoCkgPJ9t0xNT7ghpNvu9Pxj61BOuR8NrH/+w49/d39yrPKZ9fOfWT9/2+HLP37tv4GQRyjNTy7NTw7+GWaFQjhs3KS05avKZ9bfUOBj9fwCADhyoemW0pxXf3TX0UvND/7fJ2HTK0iLnVOUwpAwAoEAYUg2l8tVKpUIgvB43szMJqGQiSbFBUgASACIByCM0WMDIABCAM01wvAB9AB0AXQA0Af9xMd3sdmBzs4EtVrtcDisVmsYYZw/fz49PT0/P592KK/Xy+fz1y+ZMoYsumZhIYqiDHf28vLysEofLBYLr0wBADyeNyOjmRl/5gAUAGgimioAAMQBxAHMAagFqAKgySOJj+/CMJbRqJNIJHw+32w2hwm3n3zyyU9+8hO8PAo13G738lk58RpZV78VAC7Wd07JjK9uMe46PmQaKcmKXzU3v3fwWgwqFvb/G8DhsP/yFME6fa62vbx6yH6j7zYteurNx1aV/nD9fImIv27JFL1x8NWtJ0Ivttjdt5Rmo4HA917esfdGibo4M04k4Drdvt2na0NZlM9DlpflAsDnJ2qkYj4AKCQES+TaRUXMCaOioiIsGxtP7sNDArhcHzP+FACkAaQBJDK5aQi4AIkAiQBFAK0ALQA05kCdzhgIsLu748RiMZ/PHxwcDCOMrVu3Pvfcc0xCGjwez6Kp6RkJaoaGQIhIF+UhnHuXTmEu4oZpGlwuV6PR4PzJYmHp6S0CAa0gmgKwFmDhiPgzFPkA9wLMAqCJI0lI6NRo+kNnG6aEkOnVYcCrqNw5b2hlxbW+RkP/pl3l+L9jl5ohpDlKcLsT8bnDR0PRwMufHP38RE3ovw/3XwjyZ/Aum3aVz/nua0cuNgHAA7cN6cP4E5ytaX/8pS01rUYOm33X/MKwW5TlJwPAruNVYQGMt87M5vMQAHj8jtKNd84CgMxE9bYXHnpq7dzQy9YvKWYu4u7bty/0CIIgGo0mSN9paa0M+DMTYDHA/Mj5MxRCgHyAZQCzAWiSzuLju7TaPny2Wq1WKpWGEQaZXh0GvIpKkDCYIIJddOXs3EAgwPBNhL0GPp+vUqmCT5WW1kqnZiAAcwEYeYcZoxggDaAcQE9xUUpKm8fDt9mkuF7E4/EGBweDsk1FRUVJSUlCQgLtzTwez+1zcv+16wztlQBgtrnsLq9EyJtdmNpGlHr6j61M6yQN2lz//OzU4mmZSmm4cw/D4Bdv7v3iL4+tmJ1bVpB8tqYdAGxODwBkJGoAYMuhSjaLpZaL4JoJKulan5Wp2UOPLBHyZxWkJMUo/vnZKfzIbWXZAh5iNjPKSjl48GDonzweT61WBwkjNVUvlVL381MAFADkR8/AKwAoAogDqAWg6gySnNzu8fCtVhkASKVSHo9nMpmChHH58uVp06alpKRQjIDD4/HcPjv3b4wLX0Wwi95ams1Qkmlubg5NYREKhaH8qdMZlUrqBOhYgDXR5k8cUoBbAWZSX5SS0oYHlwGAQCBQqVShKQ5hqw8ZvF5vfmpsbgqjqg4BDPv04CUAeOG7K/753Jrn7lv4u8dvO/P203ctCN/uhoOLcA78fWP95p///Yer711WMqco9Zn1CwCgppWg5u2lhs7PT1QDwEtPrMQNRVeauwGABdDaZWruHPjx/YtkYgGGQVVzNwD8a2f5L97c87fNx/+2+TgeZWEcsP1t8/H7f/txcMzbGBNGW1tbXd11AVsgEITyZ2xsj1pNLf6lAMwFKBgDB4wGYC5AGQCVFpOS0oYgQ1IGn8/XaDShhLF7924m1myv15sWr5qaHc9wZkx3US7CWToj0+mgXykxDAslYryiXAQhnHIAACAASURBVPBPicSekEBdLiwdYOkYO8GmAkgBiPuWAwCf70lKMuj1qdf+5KvV6oGBATxboKOjo7m5mTZKMxAIeL3eJdMzrrYxajv/0geH5hSlFKTp7gzpiZydxKijBJfDFgm4axcVB6OIMAz++slR/DMuTqPXUh3++N5Xt5XlZiVpbynN2X/m6uvbTj5w63QBH0mLV1V/9BP8mtc/O4l3/gpg2EcHhkJnH1g+femMLKPJ9srmY6F3XzI9kyGLhqZPCIXC0CRMkciZmEgd25wNUAJA750eKTgAUwBEAJcAiO3qPJ43Obm9pSUd/5PL5arVapPJhMfw9PX1NTQ00AYG4qX9l0zLvNTAKCSG6S66oCQNsACTcKLm5ma8+QcASKXSsOQduteQBbBsXJzUmQBUHhS1eiB0q8dV02DpQOaKx4KSdACoaTVaHe4rzddfSYOhr89sD0bzAIDPjz74+0+ff2vf5q8uHbvU/MaO09/7f5+FMQMhfH505XPv/OyNPWdr2q0Ot8frP12lf+gPnwRTzD87cqXNOLjnmn3IOGD7v3cP9Fsc1S1GABiwOm/90aagswfD4PXtp17++OjwG11u7Go09B25MWNjblGqiI8wCSdqa2sLFnMUi8VhSdJ0hJELMHMs+TOILICZAKTRCErlYOhWH0YY+/fvZ7iR4oTBBEzLi/36kaX3Li5gErHw9ttv429CoVCEFVmPje2hfBOpALcymnXU0AJAymweD7+6+gY5E0XRgYEBnBwff/zxpKQk2hsoFIqpj/4D1/cmM9gsVkqcUiUVNRj6IprtT+5f+PBtU5gQxgcffICrPzKZLCzRT6vtS05uJ/keAGQClAIwzQ2MBpoBzgIQy4w+H7e6ujAQuL69hRIGw6BuuVw+98k3r5v0hyFYXozpLlqan8xEmDEajTh/SiSSMP7kcNC4OIpC1WqApQwnEz2kA5B2f+DzPTrdDeoch8MJlsw+c4aRHcjn8+GNMyY5AhjW2mW6UN8R6WpSmpfEJO6qv78f50+8KnzoKRYLoySMRICS8eVPAMgAmEKmBnK5PgrCOHXqFJMbMCcMRiwqE/NzktRM8rYrKysBgMvlDvcRxcb2BG0wRFhA6xEZGxQBkEYj6HRGNvuGp+ZwODKZDABqampsNmrbIwCAz+eblkNv/r1JwUU4UzJ1TNSfK1euAACCIPivFwqdzsjlkjG5GKCAQuwcSxQA5JGd0+mMQbsRDg6Hg+t0TU1NZjN9iBhzwmDEokUZcUxWSq/Xe+bMGRaLpVQqw7xGbHYgJobCajILYAI7bc4lW6Q5HHT4tEUiEd4thklunc/nw8t/fy1RlKFjooWiKHr8+HFCwgAASsLID4kVG3/kAxDbXVksbPi0hUIh3i2GSeEl5oTBiEXzU2KYsCgu4uJFRMNOaTT95FuoDqCY5NT4gEvhhsEd1mFQKBQcDufcuXO0Q2MYlp9yE/T5HRkYEgaezResAR0KjaY/bDsKQRJABC7+MYAcIJfMeElBGOXljNqI5CYxCshhxKJZSRomi2VNTQ2PxyMs+UPp74o4KWQMkAVALHXweF6FIlxuYbPZCoXCaDRarVT5zThEfCSYNfI1Q1aShgmLXr16lVD3ARrCyAKY8M6rmQDEZTcQxK9ShYfj45KC2WweHKQvfc5mYWlx9DI8IxbNSaZn90AgcP78+eGaBgCIxQ7yXJak0cVwRRGkO/nwNwEAfD6fz+cz6fzj9XrT4iZ7K+6RgQlhAAAZYQiFLomEzKSZSsYb4450so2UkDB4PJ5AIGCS7e31elMZEAYjFtUp6QPHzWYzgiA8Hm/4qeG7UAgmVpIJRRIAcSSQQmEmrPsoEokYqqOJsePg0JsAJGjoS0BZLBYURQk7kVMSRurIpxVlpJBNJljiLAwikejqVapYQhx+vz+JAWHQsygP4SAseltud3c3WQqITEYmDcom1BgwHMSmXRYLI3wEgUDApOgOi8VKjBlhF7ZJDiGD4LSenh6yHuTkhKGZTCwKAKTeEcJH4PP59fX1tB4QFouVoosGi2oUYiaKqMFgIGx+jCB+cimXaYDFeIF0PoSx3SwWC0EQJkmSqV/HXVQpFaIoPWF0dHQQEgaHg5JLuQkABOLYxCEBgFheICMMoVDIpNtFspbeSEHPokopo67j3d3dhOX0yV8DACSTn5oQCMiMRmRPIRKJmDjB1NIJN3tEHwpmhGE0Ggl7LlOmOk02N5WUTAmiIAyTib62g1xEvxLRs6hEyKdtZYGiKNmaQb6F8ibfmwAyPxhZBiOXy7VY6DsOisagmuGEQyrk09ZPxDAsGLAdBnLCEE+ok5wMxFMSCl2EdgoEQZhY+4UMCIOBoCsnLboVhNvtJrQHAAB53vZIeu+OPYhnxWYHyB6ESYwRD5lE7bejBZmYfu32eDyEFkSgIgwlAE0Z24kAac432fLNhEX5CH1EHT2LyoQEdQDCQJHnTV76ZEKiumhB+iZ4POIQZSa7KML5Gu6iChG99O52u8nYmJwwJqdpTQ5AzAijIQwmndboLxHw6RmdIsKePPyS3l4/ERCQucvJ3gQTqwCHcdO7mwhCBoRBEdhAThiTM8xDTFbXjowwmOyiTAiDgdOFwQ5A8SbIw7smoTCDg3hiZAGMTEp+05Y2vxnB49ITBoUvgJwwGFmhJgLEEyN7EEaEwaCTLf2vzGFAXmQuIBYLI2v2OMms6qEgnhgZizLxSH0NGRSAiX5N4RsMSyEKwaS1fhN7gckehEloJJNe0/QsKkTo4xYGbcTWOXL+ZHTrCUJkE/P76VOxfAyuuekgYEAYZhvpTkJOGzcZYZA9CJNe714GhEH/c1Q1UaTbDmHQRBw0TNm6nGnX4HFHZBPDiGvf3oAB00hqzE9yhDZiJMPgIKlvkJw2Ji1hEL9osgdhwqIWC707gIGeyYDRERLbMYaxyN8Eo4JUEwHiiYUWwggFreMBAHyMO4XdRGCyAwxPSwyC7PecxIRBLLiSPQiLFR3CoB/F5aH/ycicogDg95O9pIj6uIwniCdG9iAcDr1Tys3gN7zpEGyOSIGvF2EQe4lICYN8eQqCCWHQs6jdRV/MhjAIE4fPR0bB9CbpiYCb7E2QPQiXxDUfCoeTaSO5mwh2BlWORKIREAajktnjDhdFtTHC4wiXCWEwsPrSXkGh8Qchl5H6sjwesnWUPud1IkCqO5E9iEBA7ySw2Jl3+LppMGaEQe/xnwgMAhALpaMhDCsDwmDCok4/Xf0otYo0M9XtFpCcYVQAetxBPCsMY5E9iFhC72ofNE9OkWFUcHt9tJuAZiSEYWLYdXJ8Qbp2kz2IiKj8SPig5miYiwCgf4BmxxOLhGTbutNJFqLgmZRcSlwgnPwpgEn37j7T5NwZRot+Ekt+EAiC8ATEPx35T+oAoLcVjzuIOxG7XEIyc5FCTh/J2MfA1M+IRXv66ButiaXEE3I4KCo2UFQ3nhB4AYgLnVA8RWwMfXEQYx/TnrM3F3p66QlDKiWO9KQkjMnGok6yKVE8RYyWPl/HyICzGLFol5F+u1OqiMPifT6uy0UmlLeQHJ8okM7HZiOTZlnJifT9czqNE9MNfqzBhDBUauLMBBTlkNN39yRzvRjIrJvkhAFJCXG04zIhDEYsauikj16IjyNN/rRYyHZ8MwB9FaZxBGnvZLxl3XBI5Qpav6ixt/9r6XQBAEMXA8KIJ6VUcsLomWQSFimVkhGGSCIXCGgiGU1mi9UWDXMRAOgN1L3MAAAy0lLJTpG/CQCgr/0zXugEIOj2BwBms4JM39DGxNKOq2+nrxJ4k0LfTk8YWempZHE2lIShH+Gcoo92svXCapWROUU1DKRcJr8eMGFRDFj69k4PXUMXoYAvUxCLNHa7hFzWbaNtYz5euEJ2wmQiTW1NSaGv7dLUasC+joH0GLC6e/qsNho3JpvNVqiJ6dXpFJHLui2TRg9qJXO3UBBGcjI9YTS3tjMhDHoWDQAbAOqb9LRXxieSVsQdGKBoVH6RduSxRwuZMOPzcQcHiT0HXC4vKz2VduiG5tbA15RFAaC+WU97ZWIiaQU9SsJomgQaaTPZSoGiHDIWZXOQ/Bz6IsD1zXqMAQOy/ddA1hcRZ9G6hmbasfJysshO9fdryGMyuwBqaAcfSwQASFs/9PWRSiwxcfRtcxxOV1Nre2BiOkqNLVDgAEBdPT1h5OeRdsXt79egKNmPo6fubD/2sAPUk4Xm9vVpyeLPY3T0FkS/31/X0IySsyiKojhjstv0rfg/shaR+JuoriM1pQShVavkSmIPBIpyenspihWVT2iw0Skye10gwKZg0Zxs0pZqQeC/GzrRLPrk3XMatvzcsOvXNR//5LFVpVEZc4gwrtIThlwqUWmJlXYMY1ESRt2EGhRryZxwAEAx7aws+i20qq4RwzAKwugxduOMyeZeA1kCuB8QAGjWG2j91ACQkUk6uZ6eWPKNNABwnHbwsUEdQB3ZuZ6eWDJ7gEgiy0ynr9NdWX0Vrv2GE4WMBPXDK2c89fKO9c9/8INXdj5595zYaPSYCQA7AKyOrp7Obno3ZlYW6XJmNOrIQ+otADUTFBJYRyHc9fTEkoXmCkTivGx6Fq2srgMAlJwwEA4yxJj8a2CROw9wCrtwmV4cnTG1mMsjjofy+5HubgpPUQ/AYdrxo412gBNk57xeHsWE0zNJpfpQXLxSCxPNopmJmsrGroMVDeXVbYcvNFXUtUer5akfuHDtGakxpTBPICQOJwoE2JSE0Q5QOe7pL60AV8hEXGpKTktn1Irm4uVaAPCRlCwDAC6PizMmI6eLF7gAUHGxisnFqRmkUzQadRSRdABNFAwzBugE+JLidFdXPJmygXB5c0qn097g4pVam90BlG9iBMhM1ADArx+9ZdsLD73+3N2019fqe6bnJGoUYgDQKMQz85J7TdHJJsGf6xwzwkjPJN1Ie3tjKION6gEukWUgjQHaAS5RbN1dXfFk+jObg5TNpO/0V321cWDQDMwIgxGL+oAHALUNzd099MEQc8pmUGTKdXRQ90GrAzjKZEqjhh5gL0WCv8mkojA2ZmSR2j9CceZ8Jf7BG71CTTwuZ/8r3wGA28pyqpqNxRnxxZk0USyGHvOVpq5L7z1r2PXrS+8922Dou1AfHVct/lzN+nYmnvN5s0sRHqk3n44wagDOjUsCYzNABQBxeW4AMJsVFOaJtIws3rAeqsNxpiICwmAkgHmuVXw6efbCujuXU1/M5/EysvIa6ohXVptN2t0dFxdHEZXSAOAAWEjWOTsaqAKgatLq9fIMBlI/AZcnWDB3Fu097A7nybMXAcAPSBTNRRkJmuauocDOtz4vl4v5GQmaK3TFax5/aWteaqxCInB7/ZWNNOwkFfE3LCspzoxXy0S1+p7Kxq69p+sCRAZ/zzUKO3nmYmoSvfCcnZNfW3WJ8JTdLunsTEhIoJhbHYAboBiAPlxkpKgGqAIgzT7x+xEKwuAg3Hlzymjv4fX5Tp67CAAosJloQMiJE0OypYW8N0mQRY+drqBlUQBYNH92m77Z4yLWH7q64oVCF2Xjuk6AHQBzATJo7xUh3ACnAZqoL2prSyE3YEBeQSGTsjTHTldcu2U0S9oZes2xKikX4Tz5/z4zDtjitfJ+C00QWZxaBgBmmwvP8NSpZADQPUC6I73x47WzClPKq/WXm7oTtLLfPnZrWrzqtW0nh1/pgSG7w/Hyim/ds4r2Z5k3e2ZrS5PLQcwDRqNOJHIqlRRWyVYAG0AeQB71jSLHIEAtQC1ZgSIcbW0pXi/pvpeTV8BnkN9/7HSF1+uDkF+PEFeuVHkH2gAAee211/BDnZBNVmXYfW0s06DlxJnz82fNoJ1HUXHJ+bOnyc7q9ak5OfVklfaH7gmHANoApkevPHkdQAVtLmJ7ezJZ4CUASOWqWQyUDQA4fOIM/sFN/iY4bNZXrz5xyzOb/GgAAF55+s53vjhbq6cykNqdnnM17Qf+vtFkceamxPSZ7Weq26hnkpOs/fC394ceeerlHV+cJDb+xaqki6Zl3Pebj05eacWPLChJ/+A397++/eTwfdQD/ACw2IDZHc5DJ84sWzCbeiYAUDJ1avlJUut9a2saj+el7MjUD3ASoBcgG4A+Tp0BUIB6gAba1MiOjkSzmTTxUCyVz5vNyJvFhDAAYMeOHVKwAQDy7LPP4of+uO1ynYF4Z8OA5QKhEFwAcPDoaSYsOm1KoV6v7+8hDu5DUU5LS3pWViNZJe9raAJoAigEKBgdozYCVFEoGEF0d8dRaBoAUDaLXpIBgNPnLgX1djd57WatUsJFODh/AoDJ6iwtSKZmUQD43sufLZuZnZOsPX655eP9F2jrv5ntrjt+8q5WKXnxiZXfeWkr9cVSER8AWrquJ0l5fH4Om8UCFmGtQzcIReAEgINHTzNh0aL83JYWfU8XcdQrhrFaWtKzsxvI20kAAAZQD9AJkAaQOgpG9QK0ArQyCdk3GnU9PVQC9syZjPizorK6zTDEFC7Kot7r16/LS1QAADJr1pBaJTvQCkAqfAZZtKm1vaKyemZJIe1sFi9csOOz7WQtKN1uQXNzRmZmE3njgCCqAaoBUgEyAFIY6s8AANAP0ArQyLAcjtGo6+qiigvJyM5PTyFVRUKx//CQ+oABOMnr7lvsbo1CzOchHq8fACQivttDXxLOjwb2n7m6/wzTyJvKxi4ASNDKvT4U/0w9OACcfeeZsONktUidIMJZ1NDZfercxbml9CLGssULtm7b5vMSM6HXy2tqyszMbKLkUgCwA1QBNAAkAiQCJERivOgB6ADoYJiY2tMT29lJpWmnZmRnZ6YxGWr/oes+C2oWzc/PL8tPBubk7gSR6lptiD1fHmXCokqFbOqMUgpx1+kUNTZmpae3kDfJCoX+WvZDAkAsgBpADiAOKV6OArgArACDAH0A3RR6/3B0dcVTeudArtQsXTSPyVCnKy41tQ4tzE6g8CWAy+Mrr27b/sLDRy40aRTiexYVv7mD9OfCkZOsXT3/hh/f4nBv2kVl/Vo0NSMpVqGQCCVC3oPLpwOAxe4mE3T13ab1z38wfJ4k4aE3LEB7vjzGhEXFYtH0mWVnTpGKu263oLExKyOjmVIVwuEBaAZoBhABxACoABQAMgARgAiADYAB+AEcAHYAC8AgwEBEKeNGo46aP6Vy5a1LFzEZ6nxldTCQ1gXCADN/SgQsigKbAwEAaGjWnzp7cW4Z/cuYNqWwr6+vraWR7AKXS9jQkJ2aqifvqT4cnQBhdj8OADaaEsltbSn9/VTFExAub+mSxQxH+2L/keBnByWLAsB3Xtq6YVnJ0pnZPITz+Etb24z0IVwLp95gRSNjtlA8u2Ehm82SS4TPblgIAL995wDFxeV0ym0o3CDwA4KAHwD0hs7DJ88umUevCxQX5Pb29rY0kgoCHg+/vj4nLa1VLmcYWuQMWcRxsGDIkD7yIsYGQxJlfCKw2ZxFixYyHO2L/deDc2gJIwhWc/MQW9//f5+eraESynVglF1zTMXFav/6+58xvMf2HZ+b+mnWraQkQ0zMBJQycrsFbW0pdjuNjDR3weKCXEbhRPsPn/hgy+fBP1shLbpxC2ONpFjFn5+8ncu9wUvk9viffe2LvkFifSEGehXXVCS1SvH3P/6Sw6xZ444vdvcbaQTvhIROnY44j3dM4fHwqQ2HOGbNmV9cyMi8fPjEmXc+2h78Uw+p1E7RT353Hy7oRtA/wxZi7+3u6dux5yDDL95x+wqxhMbYYzAktbSkU1i0xwL9/Zq6ujxa/iyeOoMhf1pt9u1fXN+gnCCk5k8Om7XjpUeC0dF/e2Z1fiq9068gTXf/rdNkYgEArFlYlEf3FYTDnld8XVNaNTef4mIMg/NXO8qr2sqr2s7VtGcmaGYVpPB5iNVBqozYQ5TAAZN52xf7aR8Bx12rVkrlpCUCcXR2JjQ3Z5BX9BwTDAyo6+ryaPkzv2gqQ/50uz2hhOEGAfNolghY1AHi0NyZ7V8c6OhitLzx+bzly2/jk4RoBjE4qKypKaCWK6IFp1PU1JTZ1pZCHtk/hOz8IoZeFgDYvHOv03WdlG10rTK1SolcLAhGBVjs7pn5NOYohMPe8ocHn143718/XfvK03f+YeNy2v7CswtTQrNbfvqtxcmxpIzR0Wt+ZfOxVzYfO17ZvGJ2LoZhT/9t1/rnP8ANWoRwgijUBf/F/sMtekbpKWw2+/aVK4Riml/JbFbU1BRQG1SjBZdL2NycodenkqfIDSEjO3/e7JkMh928c6/Zet0yQksYoYisC5XlRs/Hx9t3M/yiWqVYfttyWi4NBNgGQ1JdXR5ZFvXogQswdXV5lFU5hpCZW7BoHr0jAUfFpaqjp67nnWIANro2xxa7O14r512TKgV8xOOl8aAkaOUmq3PhU2/MKUqdkZd0+4/frWqmCS0SCXihzR16Bm2xKirBQS0T/f2Hq7e/+MiJy60Lnnpj5zH6ENxwwviMKWHIpJKVK1cIxTSCDIaxOjoSa2vzKQodjBJ4SFltbT6F8zOI9KxchrZDAKisvvrl0VOhR6yR9L+OjEWtN76JyzVX9xw8xvC7sTGalStX0i6ZAOB0ilpa0uvq8iiyZkcAh0Pc1pZSXV1I7fkMIie/eMmCuUwHd7o+2Pp56BEryGlNdi6Pr7bVuP2Fh3+0YcEL312xdlFxebWe+issFgsDzOP1+/yBe5//QN9NX/6zzTg4b0padrIWAHJTYgrTdE0dpC7ipFjFwX98d+2iYg6b9diq0rpPfmrY9evGrb9I0FKtaGE0V9fQvHPPV7QTw6FWKu5YtUospWcMl0vY2ppWW5vf16elFX+Yw+kUtbcnV1UVMZTgsnILli1ewHBwn8//YThhSCMKCI3AXIQjHrokN7oZ/++n38/KSGV4P4fTtXvvfouJadFKNjugUpkUCjNjy1443G6BxSIfHFRS5lKEo2R6aen0EubXv/7ux6fP3RB92g7J1OEjOOI1sp89sGTZzKyrbb2vbjt57BJNEYM4tezcuzc4LR97YcvBCpq86teevfuuBUOumjd3nn7x/UNkVwp4yNRsAh/D+asd1DEScdAtvdHL9asfPVGQyygzCwC8Xt8Xe/aa+pi6Q9jsgFI5qFQOymRWyja2pPB4+Dhh0BojQlFUMn02gySnIN76YGuobAUABkii9ojiCJqLImZRETgSb/R5JCXo/vCLZ5gE+AexZ//BzvZW5tcDAJsdkEptEoldJHIKhS6KgIdAgO12C1wuocMhttmk5I0JiMHjC2fPnZuTmc78K3sOHvt4+39DjzhA3AnRyckcjqnZCQLedd3vYkMnhaIYxMy8pCmZ8Wdr22kF45FBCK6kGyskxGo1f/zl02IRjXYTin0HDxla6SuthILFwmQyq1jsEIsdAoGbIl4N7/qB1zSjLHlHDITLnzVnTj559Z/hOHj09H8+3RF6xAnCDmAU/RJk0YhTjZ0gdoJQBNd9yoZO46b3t/zg2w8wH+T25becqbhYVXmBrGDScAQCbItFHlQg2ewAj+dFED+Hg7JYGIaxAgE2inJ8Pi55yy16qLS6W5ctkUkjWFYrq6+G8ScADAK92Lbrz48KeMieU3U7jlV19jGVEXJSYkrzk6ljFQhRUWeoqGNkxXlw+fSDFQ0Ih3Po1SdEAi4AvL791J8/okm4d4HQAWIxXA+v7enr3/T+1meffIT5JFfcsvTcBfXli+cxjKmXG8NY1ISBYSy/HxklYSjVMUuXLFYpI4hCra1vCuNPADBDxEaWkQj0gxCuspdXVG7ZtS+iQWbNnLZy1Z0yklpHtMC3SrtdYrHIzWaFxSK32aROp2g0ryGvcMo9d98ZEX92Gnvf/M+nYQcdIKIOKsLx23cOXLja8Z3Vs868/fSel7/9xN2z8ZQUWqxZWMR8hgCQlaT9y1OrAOBXDy8T8rm/enjZ9BzS5EydWvriEytlYoFCIhAJuN/7f5+9+P6h79xZxiXp8hyKwWH0d76y+qNtX0Q029LpJXeuvkupHqFhfzhhWK2yURJGTn7RurV3RcSfff2mN4YRhguE9shTLEfCog4QD4+N+HzfoS+PnCK8ngwJcbEb1q3JL5rK5kxw9S11jO7O1XfPZ5DsFwq7w/na2x/ZhvWfG76EEeJyY9evNu0reeivj724RSzk/erhZefefaYogyYoPE2nTIyR//O5NcF/372LxuaskYtwLwse/RevkcVrSNeCvJRYAOjut+JG4OOXW05cbuHzEI2cftFxgmg4Ce796vjuL4/SfjcUsTGadWvvKiqZjiATHPWh1MTefsfqhYyt+jg8Xu+r73xkGgyXjEzMCCMMI6ypYwJVqEiD473NO0VCwbxZESjTADBv9sziwryTp890tE1AaWORRF5UXDyFmQM6FCiK/n3T++0d4cExVpBSxM2HQsjnLp+Vu3J27pLpWWw26/CFpv+erKluYaQoMklYHRnO1bZ7vP7fPHbLjqNV65//ID819pbSnH6Lo8/MKBVhANSSYUkLn3y2WyQSMgkMDMXs0ulTCvOPnypvb6XJ7x0LCMXSwqLiqcUFI/ju3//1QXNruFnHDhLmQX+hGCGLukBoBrliWH2XN/7zKYJwZs2IwBYKuHPstmXGnr6Ki5e6DfqRTSlSiCSynNy8mdOmjOC7GIa9/MZ/aolKyA4AU9F9z8uPZyRqjl9q+dkbuw+crbcxaHoNAK3GwY5ey/de/oz5bAMYNrc41bDr1wDQsOXnALDnNGnRQ4fb+/xb+/+4cfmGZVPxI2a76/EXtwYz5qjhAf4gKJXDSq6+8+E2hMNZMJs+jTEUIpFw+S1LevunVFy41DleK7hQLM3OzSuLxJ4filfefO9yDUHs8QBQFPWmQsQW3SDYEEiDVg4QGOKfevx+JhkPhBg0Wy5UXjG0tfo8Y9UHVqXV5ebmFubRV8ElhM/vf+WN/1yuqR9+qh80zIUZsZDn86FeNiaXkAAAEmJJREFUumzPMMjFAp1aWt8eQas1IZ9bkhUPAAVpuqaOfo/PX91ipF4RuAgnRafUKsQAcKWp2+GOoCo8C7BUaOUSBa9vfGj9orkjrOJrsdouVF5p17d63WNVDVCpic3JySkuyB3xCK+88Z/zRIUyB0AdKYuO3OkSChlYdSStih7/1tqlDBJ8KVBztaG5uaW/p9vvp00oZQSpXJmYlFyQlxuR3h8Gq83+900fXG0kWNFdIDQws6d/7SEFWxwQS+wP3bt6+ZL5oxm8rr6pqbm5r8fo90WnJqBEpkxITCrIz6HoKU4Lp8v9j00fVBFVhHcDvx3oSy6HYeROl1BYQSYCp4yoLtu7H39msdnX3H7LiAcvyM0uyM0GgKaWtnZDR19fr906iPojSywSiiQKlTouPi4rPU0uG21957aOrtff+ZissnMfMApa+l+ADaQicMqJ6lx+sOVzq9W+/q4VIx48LyczLycTAFr07W3thr6+XpvFjEa4jgtFErlSFRcXl5meqlSMtvJOl7H39Xc+JiuD2AejCjsfbQnmXogRgotLVBR4+xcH+gcGNz60fpS3yExPCdZ97xsw9fYNmM1mh8Phcrl8Xi8aQAMBjAXA5rARhMvn80UikUwmU6uU8bpYHi9qJsGKS1VvvrfZ7SZeuftAyySWaDjEfCROKUADWMeAy8dM35OLuDEyvg/F9H303SlxqCU8lZTn8QXa+5lKiTFyvkLEc3j8nSbavGoC4ITBI+qbtGvfob6BwSce2cAwZ40M6anJ6alDDcj6TYO9ff1ms8Vut7vcbp/Xg/rRAHYDYQhFIplUqlYp43SxAn7UcqouVdX9673Nww37QxMDDZNYIgqMlkUDwO6B2ESS1hdHT53r7O759oPrkuJJGwRHBK1apVWPVSA1BXbuObjtC9I0aCtIh7sEaSHkce6dkzQ7+7qKcvBKz/YzVBVuNVL+PbMSp6Zdj4v44nzXnotURuBkjWhNWUJewnUvy5bThsPVVKm5ufHS1aUJ6TFD5sc+q2f3xe4zDfQt30OBAasHYpNIOrKcOnex09jznQfXpSVTl89lCo1KORoxdcT474Ejn+7YQ3bWDpKROVpCwXnmmaGAz8+OVTOPcQmFD7gosMUkJf1Ng5ajp84q5LJovYxxxoDJ/Ma/Pzl0/AzZBR7gd0ECRNiekI+wn12VU5h8g4iVEStJUovONxMXXtBI+c+uyk6PvcFwnxMvVYp5V9qIX1xajPi5VTk6xQ3be2GSHGGzr3YRV40pTpY/vTJLKb6+yYj5yNRUhdsbaOllumnj8APXD4hkmHMOh9liO3zijEwqyUi9KRV4i9X2r/e2HDhMULsUhxd4nZAw4tayaxcVJWrlMPpdFIcqPjNXFW/pbgEAFoslEfJ9ftTtHZJ+vT707Q+31dY3P7DujtErhOOJY6crPtz6eWgKaBhQYHdD3Ahew9pZiSlaAvdpSariluLYg1cI1N17ZieqpQTi2bxcTX2X7VwTQcrL+tlJfC6BMLliqq6u01pPxKVPLScOfF83O7HaYDGaIzOzW0DOBa+KvO3dfz7dUdvQ9MA9d6pV9CGTkwenKy7t/O8+m90hE/MBADDw+lGPzx+MZ8WAZQQdw+pE1IgOi3702/uTYhWbN2+urq4mvKDB0Hfq3MXK6roNd68cpaV3fNBl7N2ya1/FJZpUyW6IG1kziIX5pLalWVnq4SyqEHOnppIScVmmajiLpmrFYVtuKGZmqoazaAn5LQBgRoZy94WIQ/D7QYsASmhTxHH2wpXK6qsb7l5522KmGZgTiJ6+gT0HDtlNxmStFLQ37DcYhrUZB7sHbADQDXEjs00MR3RYVKuUAMCGDRvee++9piaCWBC8MoDD6Xr3489OV1SuXXULkzbGEwK/379zz1c799KnO3ZDHJNY3OHQyqjKfMSrCF5tjIzqfcepCAwSMXLKuygIBoyVU95FMUKzhxF0HECHh6MF4fF439+8q7yics2qW4rzGfXLGX9gGLZzz1ef7f4yI16FE3wYWCxWapxKyOee7uKNIBaXDNFh0af/tnPFrFwAkCRPiXd7ujoMAGC2u/z+AAB4fP6ekFZcdQ3Nf3ylefaMklW3LkpLmVwK6r5DJ/574LDZQl/d0wixEZW3CEVY9J5cLscwzGqlqoEY+hU2my2TyVAUtdmo5hnaMBZBEKlU6vV6HQ4qfTL0LjweTywWezwepzMKoQKdkJAIHSLKHoQNzfo//ePtmVOL7rh1EZPereOJL4+e+u+BIwMmM8B1s4Pb6/f6/ADAYrHEQh7+gz/64H2HXzkMvsgiUigQHRbdV351X/lQ0NP+vz5efmSvXq/v7LNYHaTO5fLzleXnK2fPKLl18dwcZmWCxw4ej/fgsdMHDp/EW8rRwgix1mi0sUAQJDs7WygUAoDVam1sJK1mGoRAIMjKyuLxeABgMplaW+nTbqVSaWZmJpvNBoDe3l6DgT4lTalUpqcPZcx2dXV1d0chxbQTEhKgk5pLAaDiUlXFparSqUW3Lp474aKW3+8/eKz8wOGTvf0EBm3jgBUXawEA4bCLM+PWrV1TWlpaVtB8ojJq4YrRb03L5XIfe+yxTz75pKaVvvgYzqh52RmL5pbOjzD+PirQGzqPnz5/5ORZj5dpjFs3xI14/wxDTEwMzp8AIJPJ1Gr1wACNbyM2NpZ3rbePSqXq7++n3ksBQKfTsa/1d46Jienr63O7aaw+cXHXE27i4+N7enoCgZGXKcaBAasDEuOgS8qgOcC5S1XnLlXlZKYtnDNz/uwZHPL+1GMEQ2f38fLzR06epTAWhsKPBuYvua20tBQAFJJROULDMCbdo9ls9gMPPLDjxFVwMCqaXNfQXNfQ/MGWXbNnlpRNK2ZYEXM0MA2az12qPnO+sqFZz/xbKHC6IY5hIgsTIDc2YuUwSMrj3ljdAiFv5Rrdu3gZL2HU6IZ4FHqGJ2AQor6ptb6p9YOtn8+ZWVI6bUpx/gjDqpnDbLFWXKo6c+FyXUME22AAWIK4wjtvGyqGzqSgFHOMYYN3tiZroMeuBqYub4fT9dWx8q+OlSvkspLC3OL87PyczIgSrGnR1NpeXdd4ueZqfVNkZVkAwA0CI+ii2MwXAMxms1Y7ZNrFMMxioSfcwcFBuXxIxvb5fAy/IrpWncTlclGrozhMJlNMzFDYmtVqjRZ/4uiFWD9wNQy6YOFwuz2HT5w9fOKsTCopKczDCUMhj6b3rkVvqL7aeLmmPtjQgQkUUiHCYcfG6hbesnz5/CEZ0Dhgq6NrnBUR6Fk0L0XTO+gYsI4kCmwA1F7gxUIPO5JuDmaL9eipc3hRpuSEuMz05LTkxOTE+ARdjEgUmQhh7O03dHa3Gbqa9YbGFj1DoWU4rCAzQnQCpG4Y1mptaWlRqVQYhvX29no89HHhAwMDLBZLoVD4/X6G8qfRaAwEAnK53OPxGI2MSh8bDAa/3y+RSNxud2cnfQfuSGECFU4YhJlSZLDa7MfLK46XVwBAYrwuMy05LSUxOSEuMS5WLI5MtOnpG+joMuoNnS16Q0Nzm2NEJjGFRLhgTtndd98dKnRs2lXOMHEPmDEXKYsmamXPrJ01Kz9RyEcAQG807y5veG9/JcN7B2EDqRsEsdBDaycgRHtnd3tnN8BZ/E+5TKpVK5UKuVwqEYtFQgGfy0XYbDaGAer3e7xep8tttTvMFuuAydzbb0LRKBjWeiHGzKAW0cgwODg4OEjfxyUU/f39/f1MtyAcvb29vb2R9eOIiomIAnaQuIEfC70UzhgKdHQZO7qMweJ6MqlEq1aqFHKZTCoRCwV8AY+HsNlswMCPoh6P1+ly2exOsxUnjAF/hDmAhFixYsXcuTeUcf34y4sfHbhA+0W5WPCrB+bPLkgU8rkAoDeav6xofms38ReJWXTjqukb75gOAAKBAEGQQCCQlcT9vk4xMzfhqb+TRiSSwQfcDkhUgYm5bEMGi9VmsUbQ72yUcIKoD7SeqLbZBgCHJ2L6cFA2NbS7CM7aKb9icxOcdRAdvD4g5dkRwA/cTkhQwqAWIkh/JYTVZrfa7M0kIcFRR0pKysqVK5t63W/uOP34HWV4sfKPD1z8+Zv03DE9O37Tc6vgGnNhGJaTwk/VKdYsyFv+04+GX09gKLttZgbOnzKZTCwW8/l8oVAokUh4PF5ZXsLGVSO0u5pA1QYpjujZWsYUGLD6QNsBiVHnTwBwuP2N3aRWzXKigPWOAVeflVQMrukg0EgJ4/uCqO0gcMOSBe7iqOtk3r0uAgyCUg+pIysaMiHIKpr5ne98JyEh4dil5hc/OPTiB0NRLuuWTIlV0WjIQf4MMpdAIBCLxTweTyMX/eJ+gvgqAhZdv7gQAKRSKYfDCVwDAIjFYgThbrxj+tzC5JE9mwf4nZBoBN0kbxZmAXkrpI0geYU59l4iFiN9aGB/JbG6SBZ8N+jwHqgksE/4/AGyvJmOAdexWoKNq8/q+fIysanjcpu5Us/IaTwC4BHn3aDzTm7CsIKsFdLScm6owPjengrchMvjcn796DLqEZ64cwYAiESiUObCMEwsFgsEgrUL85dMC48RCGdRhMMuSNXyeDxCaz6efqmRj8rtgz9nP2giKps/PrCDpB2SeyDWP5a2bgCo7bD++0i4VdmHBl7f19RrId4tzzQObDkdLsiZHb7X9ze5SWJZDl7p2T0sVa2x2/76ftKCXZ+d7ThSE661Xtab3/4qYht4pLCBTA9pfaD1Tz7CcIDYAEmEuwsawH737pf459XzC6flUJU41ypE2P9v7/xC26riOP69uUnuzR9vmrB0tetSV7rNzikrjnYyHQoiuDLBh8HYgzB8qA+iIgpDEOqDMH3Ig7A9TBSnDH2euFWtszonK/TPmJvWps3o0n8mbf7cpPfm9uQmPiRN4iU3/5qkld4PeUruSW7gd7jnnN/5fQ4ohikwNEuvOXW5lO4rZSB27nLoaZ1OJVNsNBoFQXBwNRisBuFIe6jsCFW0rFcnorCGYd9g9W1FjHiCk/PR3r2OVrspmUrNBoSbk8uJZDH39/W7/ru+yOEOx8N2ViJJrz/2+98lclrfji7cvh/u3tPk5BhxTZ5ajKoVu2X55qZvdCb0hMtmtxpj8cRf87xasVs9CMG+HhhB/RYIjBisYTQVT4b/NOr59bb32KEOAB/2H3/x7U/VrmxxWNWqydP56r1tSsWRsosGwqsA1CTxiUQCgFCJbKoIKVBBOIJwcOBtiJhQTV5ngyShi4CLoKm2Cc8yiQhEbWCphj8iqQ2S1fCtCL6VypbTp5di00tlWTnrRLqjcuA5RMybExgUD1sEtjIXIwY++2Hok34dRR3saHnpmceu3Ch8dDovSCa28Bemp5P+sHJ9W/m0XOHFmYWQqKL/IIQACIRrrGDjwfmwexbtIdgbNk1dhWUJLdPoDKB5U/qnRkl4cHPYPYv2IBwNDowZdPrRXLB/iutL5UI85wPy+AJfXctkTV7oUd0FtbAcJYQkCim40m/eu69cI9BPnTmT+eG4CzADuDbief3lnqXhYf7SJcXVTrd7aMx7faLYtOTKb/feOf3sxNR8pT5BCUwAzgCcJogWrJqxyqI2ircsMmgB5rRNfwvOhDUKIoGRwCxjB4u4BTELBBY1FrjK0AkwC7DEYC0ZGIO3Jk8cPRAV4opj7D6+/PPxpx41GOjL34+rtb16y3NwT3NwYiJ84YLiI6fbfWfmn6sjmVIK37mP7LQAgPquJ+M1PZvs/COV2W13/q2+3q5d8fFx4vXKfj9lsRj37zcdOQLgcP/Fkn/4ITNTpri5ODRkE0QWIguJgVTdlFWCUQIbX39t/K40Np31wIiziFcdGGswxsFIYEWYGhkY6U0H0gMfGR9LLC5SDEPv3Gnt6wNw4r2vs6Uz53TTj1MxFPHoPtf9yLunjjY35bJVQ2PesxfLPde1HuiRMIAYQPRI0JB1kHVIUsgcEpwClQSVBC2DlkETGAgM2gh2O0BDNmJND6JHQq8aGDoZtAw9gZ7ASGCo2iq0cZ7c1/r+K8fanDnn2407swNfDEfyijcLqK4/+PzHLwf/84A2s4Yul7Orfcf8Mu+ZC84F6pK51tDYhpTsXL+cfy2tF8t10ZE/H5weUB63pqGh0XjePPn0Gyczu39zK7q9B1yD7le797Vu0l1paGigzWk79fyhbP9E/lNUo/HIshyL5dKPHMeVPJWQEJIvE8rWjhZBkqR8zUI5TURRzK8RLaeJRp2o7zY3jZJUIRzZsk006kGjlTAa/zsUkhSNBqN10e1FOeIijS3Fvy01iGRBYQbDAAAAAElFTkSuQmCC;" parent="1" vertex="1">
          <mxGeometry x="490" y="360" width="310" height="142" as="geometry" />
        </mxCell>
        <mxCell id="sOJX9RBalDAA7VeVCdZa-2" value="" style="ellipse;whiteSpace=wrap;html=1;strokeColor=#FF9933;" parent="1" vertex="1">
          <mxGeometry x="612" y="479" width="15" height="15" as="geometry" />
        </mxCell>
        <mxCell id="sOJX9RBalDAA7VeVCdZa-3" value="" style="ellipse;whiteSpace=wrap;html=1;strokeColor=#FF9933;" parent="1" vertex="1">
          <mxGeometry x="629" y="479" width="15" height="15" as="geometry" />
        </mxCell>
        <mxCell id="sOJX9RBalDAA7VeVCdZa-4" value="" style="ellipse;whiteSpace=wrap;html=1;strokeColor=#FF9933;" parent="1" vertex="1">
          <mxGeometry x="646" y="479" width="15" height="15" as="geometry" />
        </mxCell>
        <mxCell id="sOJX9RBalDAA7VeVCdZa-5" value="" style="ellipse;whiteSpace=wrap;html=1;strokeColor=#FF9933;" parent="1" vertex="1">
          <mxGeometry x="663" y="479" width="15" height="15" as="geometry" />
        </mxCell>
        <mxCell id="3ck5Iee_9ODb0SQ2vx3s-1" style="edgeStyle=orthogonalEdgeStyle;shape=connector;curved=0;rounded=1;orthogonalLoop=1;jettySize=auto;html=1;strokeColor=#FFFF00;strokeWidth=10;align=center;verticalAlign=middle;fontFamily=Helvetica;fontSize=11;fontColor=default;labelBackgroundColor=default;startFill=0;endArrow=none;exitX=0.5;exitY=1;exitDx=0;exitDy=0;" edge="1" parent="1" source="sOJX9RBalDAA7VeVCdZa-3">
          <mxGeometry relative="1" as="geometry">
            <mxPoint x="140" y="321" as="targetPoint" />
            <Array as="points">
              <mxPoint x="637" y="540" />
              <mxPoint x="440" y="540" />
              <mxPoint x="440" y="240" />
              <mxPoint x="140" y="240" />
            </Array>
            <mxPoint x="640" y="490" as="sourcePoint" />
          </mxGeometry>
        </mxCell>
        <mxCell id="3ck5Iee_9ODb0SQ2vx3s-9" style="edgeStyle=orthogonalEdgeStyle;shape=connector;curved=0;rounded=1;orthogonalLoop=1;jettySize=auto;html=1;strokeColor=#FF8000;strokeWidth=10;align=center;verticalAlign=middle;fontFamily=Helvetica;fontSize=11;fontColor=default;labelBackgroundColor=default;startFill=0;endArrow=none;exitX=0.5;exitY=1;exitDx=0;exitDy=0;" edge="1" parent="1" source="sOJX9RBalDAA7VeVCdZa-4">
          <mxGeometry relative="1" as="geometry">
            <mxPoint x="175" y="322" as="targetPoint" />
            <Array as="points">
              <mxPoint x="653" y="540" />
              <mxPoint x="653" y="540" />
              <mxPoint x="653" y="570" />
              <mxPoint x="410" y="570" />
              <mxPoint x="410" y="280" />
              <mxPoint x="175" y="280" />
            </Array>
            <mxPoint x="680" y="540" as="sourcePoint" />
          </mxGeometry>
        </mxCell>
        <mxCell id="3ck5Iee_9ODb0SQ2vx3s-10" style="edgeStyle=orthogonalEdgeStyle;shape=connector;curved=0;rounded=1;orthogonalLoop=1;jettySize=auto;html=1;strokeColor=#FF0000;strokeWidth=10;align=center;verticalAlign=middle;fontFamily=Helvetica;fontSize=11;fontColor=default;labelBackgroundColor=default;startFill=0;endArrow=none;exitX=0;exitY=1;exitDx=0;exitDy=0;" edge="1" parent="1" source="sOJX9RBalDAA7VeVCdZa-2">
          <mxGeometry relative="1" as="geometry">
            <mxPoint x="310" y="773" as="targetPoint" />
            <Array as="points">
              <mxPoint x="620" y="492" />
              <mxPoint x="620" y="730" />
              <mxPoint x="310" y="730" />
              <mxPoint x="310" y="773" />
            </Array>
            <mxPoint x="647" y="612" as="sourcePoint" />
          </mxGeometry>
        </mxCell>
        <mxCell id="3ck5Iee_9ODb0SQ2vx3s-11" style="edgeStyle=orthogonalEdgeStyle;shape=connector;curved=0;rounded=1;orthogonalLoop=1;jettySize=auto;html=1;strokeColor=#000000;strokeWidth=10;align=center;verticalAlign=middle;fontFamily=Helvetica;fontSize=11;fontColor=default;labelBackgroundColor=default;startFill=0;endArrow=none;exitX=0.5;exitY=1;exitDx=0;exitDy=0;" edge="1" parent="1" source="sOJX9RBalDAA7VeVCdZa-5">
          <mxGeometry relative="1" as="geometry">
            <mxPoint x="310" y="850" as="targetPoint" />
            <Array as="points">
              <mxPoint x="671" y="575" />
              <mxPoint x="670" y="575" />
              <mxPoint x="670" y="820" />
              <mxPoint x="310" y="820" />
              <mxPoint x="310" y="856" />
            </Array>
            <mxPoint x="614" y="575" as="sourcePoint" />
          </mxGeometry>
        </mxCell>
      </root>
    </mxGraphModel>
  </diagram>
</mxfile>
